<svg width="118" height="32" viewBox="0 0 118 32" fill="none" xmlns="http://www.w3.org/2000/svg">
  <path
    d="M53.0195 27.6806V4.31939H61.6001C63.3579 4.31939 64.8327 4.63118 66.0245 5.25475C67.2237 5.87833 68.1286 6.75285 68.7394 7.87833C69.3576 8.9962 69.6667 10.3004 69.6667 11.7909C69.6667 13.289 69.3539 14.5894 68.7282 15.692C68.11 16.7871 67.1976 17.635 65.9909 18.2357C64.7843 18.8289 63.3021 19.1255 61.5442 19.1255H55.4328V15.6122H60.9856C62.0135 15.6122 62.8552 15.4677 63.5106 15.1787C64.1661 14.8821 64.6502 14.4525 64.9631 13.8897C65.2834 13.3194 65.4435 12.6198 65.4435 11.7909C65.4435 10.962 65.2834 10.2548 64.9631 9.6692C64.6428 9.07605 64.1549 8.62738 63.4995 8.32319C62.844 8.01141 61.9986 7.85551 60.9633 7.85551H57.1646V27.6806H53.0195ZM64.8402 17.0951L70.5047 27.6806H65.8792L60.3153 17.0951H64.8402Z"
    fill="currentColor" />
  <path
    d="M88.811 11.7795C88.6248 11.1635 88.3679 10.6122 88.0401 10.1255C87.7198 9.63118 87.3325 9.20913 86.8782 8.85932C86.4313 8.50951 85.9173 8.24715 85.3363 8.07224C84.7554 7.88973 84.1223 7.79848 83.437 7.79848C82.208 7.79848 81.1131 8.11407 80.1522 8.74525C79.1914 9.37643 78.4354 10.3042 77.8842 11.5285C77.3405 12.7452 77.0686 14.2281 77.0686 15.9772C77.0686 17.7414 77.3405 19.2357 77.8842 20.4601C78.4279 21.6844 79.184 22.616 80.1522 23.2548C81.1205 23.8859 82.2453 24.2015 83.5264 24.2015C84.6883 24.2015 85.6939 23.9734 86.543 23.5171C87.3996 23.0608 88.0587 22.4144 88.5205 21.5779C88.9823 20.7338 89.2132 19.7452 89.2132 18.6122L90.1518 18.7605H83.9398V15.4525H93.2242V18.2586C93.2242 20.2586 92.8071 21.9886 91.9729 23.4487C91.1387 24.9087 89.9916 26.0342 88.5317 26.8251C87.0718 27.6084 85.3959 28 83.504 28C81.3961 28 79.5452 27.5171 77.9512 26.5513C76.3647 25.5779 75.1246 24.1977 74.2308 22.4106C73.3444 20.616 72.9012 18.4867 72.9012 16.0228C72.9012 14.1369 73.1619 12.4525 73.6833 10.9696C74.2121 9.48669 74.9495 8.22814 75.8955 7.19392C76.8414 6.15209 77.9512 5.36122 79.2249 4.82129C80.4986 4.27376 81.884 4 83.3811 4C84.6474 4 85.8279 4.19011 86.9229 4.57034C88.0178 4.94297 88.9898 5.47528 89.8389 6.1673C90.6955 6.85932 91.3994 7.68061 91.9505 8.63118C92.5017 9.58175 92.863 10.6312 93.0343 11.7795H88.811Z"
    fill="currentColor" />
  <path
    d="M117.678 16C117.678 18.5171 117.216 20.673 116.293 22.4677C115.377 24.2548 114.125 25.6236 112.539 26.5741C110.96 27.5247 109.168 28 107.165 28C105.161 28 103.366 27.5247 101.78 26.5741C100.201 25.616 98.9493 24.2433 98.0257 22.4563C97.1095 20.6616 96.6514 18.5095 96.6514 16C96.6514 13.4829 97.1095 11.3308 98.0257 9.54373C98.9493 7.74905 100.201 6.37643 101.78 5.42585C103.366 4.47528 105.161 4 107.165 4C109.168 4 110.96 4.47528 112.539 5.42585C114.125 6.37643 115.377 7.74905 116.293 9.54373C117.216 11.3308 117.678 13.4829 117.678 16ZM113.511 16C113.511 14.2281 113.239 12.7338 112.695 11.5171C112.159 10.2928 111.414 9.36882 110.461 8.74525C109.507 8.11407 108.409 7.79848 107.165 7.79848C105.921 7.79848 104.822 8.11407 103.869 8.74525C102.916 9.36882 102.167 10.2928 101.623 11.5171C101.087 12.7338 100.819 14.2281 100.819 16C100.819 17.7719 101.087 19.27 101.623 20.4943C102.167 21.711 102.916 22.635 103.869 23.2662C104.822 23.8897 105.921 24.2015 107.165 24.2015C108.409 24.2015 109.507 23.8897 110.461 23.2662C111.414 22.635 112.159 21.711 112.695 20.4943C113.239 19.27 113.511 17.7719 113.511 16Z"
    fill="currentColor" />
  <path
    d="M3.87891 28V4H18.6107V7.64453H7.98214V14.1602H17.8476V17.8047H7.98214V24.3555H18.6992V28H3.87891Z"
    fill="currentColor" />
  <path
    d="M22.7969 4H27.8182L34.5426 21.3906H34.808L41.5325 4H46.5537V28H42.6164V11.5117H42.4062L36.1463 27.9297H33.2043L26.9444 11.4766H26.7343V28H22.7969V4Z"
    fill="currentColor" />
  <path fillRule="evenodd" clipRule="evenodd"
    d="M0.000231734 0H10.3454V2.06452H2.00291L2.00267 10.6667H0L0.000231734 0Z" fill="#446875" />
  <path fillRule="evenodd" clipRule="evenodd"
    d="M51.7263 0H41.3812V2.06452H49.7237L49.7239 10.6667H51.7266L51.7263 0Z" fill="#446875" />
  <path fillRule="evenodd" clipRule="evenodd"
    d="M0 31.9998L1.59118e-07 21.3333L2.00267 21.3333L2.00267 29.9352L10.3454 29.9355L10.3454 32L0 31.9998Z"
    fill="#446875" />
  <path fillRule="evenodd" clipRule="evenodd"
    d="M51.7266 31.9998L51.7266 21.3333L49.7239 21.3333L49.7239 29.9352L41.3812 29.9355L41.3812 32L51.7266 31.9998Z"
    fill="#446875" />
</svg>
