<svg width="1em" height="1em" viewBox="0 0 16 16" fill="none" xmlns="http://www.w3.org/2000/svg">
  <path
    d="M10.7773 9.39955C8.12054 9.39955 6.46819 7.80748 6.46819 5.23103C6.46819 4.50781 6.58873 3.85491 6.77455 3.49833C6.85993 3.33259 6.88504 3.23214 6.88504 3.10659C6.88504 2.89565 6.70926 2.67467 6.4481 2.67467C6.38281 2.67467 6.2673 2.69475 6.10658 2.75502C4.22321 3.52344 2.91239 5.48717 2.91239 7.61161C2.91239 10.6652 5.13728 12.8951 8.19085 12.8951C10.3705 12.8951 12.1685 11.7299 12.9922 9.84152C13.0625 9.68583 13.0826 9.55525 13.0826 9.47489C13.0826 9.21875 12.8867 9.05804 12.6808 9.05804C12.5753 9.05804 12.4799 9.0731 12.3343 9.13839C11.9475 9.29911 11.3549 9.39955 10.7773 9.39955ZM3.89676 7.58147C3.89676 6.16518 4.60491 4.79409 5.76004 4.01563C5.62444 4.41741 5.55413 4.8644 5.55413 5.35156C5.55413 8.44029 7.45257 10.2985 10.6116 10.2985C11.0335 10.2985 11.4001 10.2483 11.7467 10.1278C11.0134 11.2427 9.67243 11.9157 8.22098 11.9157C5.71987 11.9157 3.89676 10.0876 3.89676 7.58147Z"
    fill="currentColor" />
</svg>
  