<svg width="1em" height="1em" viewBox="0 0 16 16" fill="none" xmlns="http://www.w3.org/2000/svg">
  <path
    d="M8.51228 2.67969C8.51228 2.40346 8.27623 2.16741 8 2.16741C7.72377 2.16741 7.49274 2.40346 7.49274 2.67969V3.69922C7.49274 3.97545 7.72377 4.20647 8 4.20647C8.27623 4.20647 8.51228 3.97545 8.51228 3.69922V2.67969ZM10.5212 4.54799C10.3253 4.74386 10.3253 5.07031 10.5262 5.26618C10.7171 5.46205 11.0485 5.46205 11.2444 5.26116L11.9676 4.53795C12.1635 4.3471 12.1635 4.0106 11.9676 3.81473C11.7718 3.62388 11.4453 3.62388 11.2494 3.81975L10.5212 4.54799ZM4.75558 5.26116C4.94643 5.46205 5.2779 5.46205 5.47377 5.26618C5.66964 5.07534 5.66964 4.73884 5.47879 4.54799L4.75558 3.81975C4.56473 3.62891 4.23326 3.62388 4.03739 3.81473C3.84152 4.0106 3.84152 4.3471 4.03237 4.53292L4.75558 5.26116ZM8 5.1356C6.55357 5.1356 5.35324 6.33092 5.35324 7.78237C5.35324 9.23382 6.55357 10.4291 8 10.4291C9.44643 10.4291 10.6417 9.23382 10.6417 7.78237C10.6417 6.33092 9.44643 5.1356 8 5.1356ZM13.0977 8.29464C13.3739 8.29464 13.6049 8.05859 13.6049 7.78237C13.6049 7.50614 13.3739 7.27511 13.0977 7.27511H12.0781C11.8019 7.27511 11.5709 7.50614 11.5709 7.78237C11.5709 8.05859 11.8019 8.29464 12.0781 8.29464H13.0977ZM2.90737 7.27511C2.62612 7.27511 2.39509 7.50614 2.39509 7.78237C2.39509 8.05859 2.62612 8.29464 2.90737 8.29464H3.92187C4.1981 8.29464 4.43415 8.05859 4.43415 7.78237C4.43415 7.50614 4.1981 7.27511 3.92187 7.27511H2.90737ZM11.2394 10.3036C11.0435 10.1077 10.7171 10.1127 10.5212 10.3086C10.3253 10.4994 10.3253 10.8259 10.5262 11.0268L11.2545 11.75C11.4453 11.9459 11.7768 11.9408 11.9727 11.745C12.1635 11.5491 12.1635 11.2227 11.9676 11.0268L11.2394 10.3036ZM4.03237 11.0218C3.8365 11.2176 3.83147 11.5491 4.02232 11.74C4.21819 11.9358 4.55469 11.9408 4.74554 11.75L5.47377 11.0268C5.66964 10.8309 5.66964 10.4994 5.47879 10.3086C5.28292 10.1127 4.95145 10.1127 4.75558 10.3036L4.03237 11.0218ZM8.51228 11.8655C8.51228 11.5893 8.27623 11.3583 8 11.3583C7.72377 11.3583 7.49274 11.5893 7.49274 11.8655V12.885C7.49274 13.1613 7.72377 13.3973 8 13.3973C8.27623 13.3973 8.51228 13.1613 8.51228 12.885V11.8655Z"
    fill="currentColor" />
</svg>