<svg width="20px" height="23px" viewBox="0 0 20 23" version="1.1" xmlns="http://www.w3.org/2000/svg"
  xmlns:xlink="http://www.w3.org/1999/xlink">\
  <!-- Generator: Sketch 64 (93537) - https://sketch.com -->\
  <title>Icon / General / Support</title>\
  <desc>Created with Sketch.</desc>\
  <g id="Navigation" stroke="none" stroke-width="1" fill="none" fillRule="evenodd">\
    <g id="Navigation-/-LA-Legal-Counsel-/-Issuances-/-S&amp;C-3-Copy" transform="translate(-32.000000, -805.000000)">\
      <rect fill="#FFFFFF" x="0" y="0" width="1440" height="2895"></rect>\
      <rect id="Rectangle" fill="#143673" x="10" y="60" width="200" height="854" rx="5"></rect>\
      <g id="Icon-/-General-/-Support" transform="translate(30.000000, 804.000000)">\
        <polygon id="Path" points="0 0 24 0 24 24 0 24"></polygon>\
        <path
          d="M11.5,23.59 L11.5,19.99 C6.49,19.73 2.5,15.57 2.5,10.5 C2.5,5.26 6.76,1 12,1 C17.24,1 21.5,5.26 21.5,10.5 C21.5,15.45 18.06,20.43 12.93,22.9 L11.5,23.59 Z M12,3 C7.86,3 4.5,6.36 4.5,10.5 C4.5,14.64 7.86,18 12,18 L13.5,18 L13.5,20.3 C17.14,18 19.5,14.22 19.5,10.5 C19.5,6.36 16.14,3 12,3 Z M11,14.5 L13,14.5 L13,16.5 L11,16.5 L11,14.5 Z M13,13 L11,13 C11,9.75 14,10 14,8 C14,6.9 13.1,6 12,6 C10.9,6 10,6.9 10,8 L8,8 C8,5.79 9.79,4 12,4 C14.21,4 16,5.79 16,8 C16,10.5 13,10.75 13,13 Z"
          id="Icon-Color" fill="#FFFFFF" fillRule="evenodd"></path>\
      </g>\
    </g>\
  </g>\
</svg>
