<svg width="1em" height="1em" viewBox="0 0 24 24" fill="none" xmlns="http://www.w3.org/2000/svg">
  <path
    d="M11.9924 19.4933C16.2639 19.4933 19.7896 15.9676 19.7896 11.7037C19.7896 7.43973 16.2564 3.91406 11.9849 3.91406C7.72096 3.91406 4.20282 7.43973 4.20282 11.7037C4.20282 15.9676 7.72849 19.4933 11.9924 19.4933ZM11.9924 14.3103C9.868 14.3103 8.21817 15.0711 7.41962 15.945C6.39506 14.8376 5.76978 13.346 5.76978 11.7037C5.76978 8.24581 8.53457 5.47349 11.9849 5.47349C15.4428 5.47349 18.2226 8.24581 18.2302 11.7037C18.2302 13.346 17.6049 14.8376 16.5728 15.9526C15.7742 15.0711 14.1244 14.3103 11.9924 14.3103ZM11.9924 13.0748C13.4539 13.0898 14.5915 11.8393 14.5915 10.2271C14.5915 8.70536 13.4464 7.4322 11.9924 7.4322C10.546 7.4322 9.39339 8.70536 9.40092 10.2271C9.40846 11.8393 10.5385 13.0672 11.9924 13.0748Z"
    fill="currentColor" />
</svg>
  