<svg width="1em" height="1em" viewBox="0 0 24 24" fill="none" xmlns="http://www.w3.org/2000/svg">
  <path
    d="M4.33093 16.2991C4.33093 17.9113 5.18222 18.755 6.80945 18.755H14.6669C14.3881 18.303 14.1923 17.7907 14.1019 17.2559H6.80191C6.17664 17.2559 5.8301 16.9319 5.8301 16.269V9.33817C5.8301 8.67522 6.17664 8.35129 6.80191 8.35129H17.1906C17.8159 8.35129 18.1624 8.67522 18.1624 9.33817V11.3571C18.4261 11.3119 18.6747 11.2893 18.9233 11.2893C19.1719 11.2893 19.4205 11.3119 19.6691 11.3496V7.13086C19.6691 5.5187 18.8178 4.67495 17.1831 4.67495H6.80945C5.18222 4.67495 4.33093 5.51116 4.33093 7.13086V16.2991ZM10.5461 10.9503H10.9905C11.2617 10.9503 11.3521 10.8675 11.3521 10.6038V10.1593C11.3521 9.88812 11.2617 9.80525 10.9905 9.80525H10.5461C10.2748 9.80525 10.1844 9.88812 10.1844 10.1593V10.6038C10.1844 10.8675 10.2748 10.9503 10.5461 10.9503ZM13.0095 10.9503H13.454C13.7177 10.9503 13.8081 10.8675 13.8081 10.6038V10.1593C13.8081 9.88812 13.7177 9.80525 13.454 9.80525H13.0095C12.7383 9.80525 12.6479 9.88812 12.6479 10.1593V10.6038C12.6479 10.8675 12.7383 10.9503 13.0095 10.9503ZM15.4654 10.9503H15.9099C16.1811 10.9503 16.2715 10.8675 16.2715 10.6038V10.1593C16.2715 9.88812 16.1811 9.80525 15.9099 9.80525H15.4654C15.2017 9.80525 15.1113 9.88812 15.1113 10.1593V10.6038C15.1113 10.8675 15.2017 10.9503 15.4654 10.9503ZM8.09014 13.3761H8.52708C8.79829 13.3761 8.88869 13.2932 8.88869 13.022V12.5776C8.88869 12.3139 8.79829 12.231 8.52708 12.231H8.09014C7.81893 12.231 7.72853 12.3139 7.72853 12.5776V13.022C7.72853 13.2932 7.81893 13.3761 8.09014 13.3761ZM10.5461 13.3761H10.9905C11.2617 13.3761 11.3521 13.2932 11.3521 13.022V12.5776C11.3521 12.3139 11.2617 12.231 10.9905 12.231H10.5461C10.2748 12.231 10.1844 12.3139 10.1844 12.5776V13.022C10.1844 13.2932 10.2748 13.3761 10.5461 13.3761ZM13.0095 13.3761H13.454C13.7177 13.3761 13.8081 13.2932 13.8081 13.022V12.5776C13.8081 12.3139 13.7177 12.231 13.454 12.231H13.0095C12.7383 12.231 12.6479 12.3139 12.6479 12.5776V13.022C12.6479 13.2932 12.7383 13.3761 13.0095 13.3761ZM18.9233 20.1261C21.0327 20.1261 22.8106 18.3633 22.8106 16.2388C22.8106 14.1144 21.0553 12.3591 18.9233 12.3591C16.7988 12.3591 15.0435 14.1144 15.0435 16.2388C15.0435 18.3708 16.7988 20.1261 18.9233 20.1261ZM16.4598 16.2388C16.4598 15.93 16.6708 15.7266 16.9796 15.7266H18.4035V14.3027C18.4035 13.9939 18.6144 13.7829 18.9233 13.7829C19.2397 13.7829 19.4431 13.9939 19.4431 14.3027V15.7266H20.8669C21.1758 15.7266 21.3867 15.93 21.3867 16.2388C21.3867 16.5552 21.1758 16.7587 20.8669 16.7587H19.4431V18.19C19.4431 18.4989 19.2397 18.7023 18.9233 18.7023C18.6144 18.7023 18.4035 18.4989 18.4035 18.19V16.7587H16.9796C16.6708 16.7587 16.4674 16.5552 16.4598 16.2388ZM8.09014 15.7944H8.52708C8.79829 15.7944 8.88869 15.7115 8.88869 15.4478V15.0034C8.88869 14.7321 8.79829 14.6493 8.52708 14.6493H8.09014C7.81893 14.6493 7.72853 14.7321 7.72853 15.0034V15.4478C7.72853 15.7115 7.81893 15.7944 8.09014 15.7944ZM10.5461 15.7944H10.9905C11.2617 15.7944 11.3521 15.7115 11.3521 15.4478V15.0034C11.3521 14.7321 11.2617 14.6493 10.9905 14.6493H10.5461C10.2748 14.6493 10.1844 14.7321 10.1844 15.0034V15.4478C10.1844 15.7115 10.2748 15.7944 10.5461 15.7944ZM13.0095 15.7944H13.454C13.7177 15.7944 13.8081 15.7115 13.8081 15.4478V15.0034C13.8081 14.7321 13.7177 14.6493 13.454 14.6493H13.0095C12.7383 14.6493 12.6479 14.7321 12.6479 15.0034V15.4478C12.6479 15.7115 12.7383 15.7944 13.0095 15.7944Z"
    fill="currentColor" />
</svg>