<svg width="1em" height="1em" viewBox="0 0 24 24" fill="none" xmlns="http://www.w3.org/2000/svg">
  <path
    d="M4.86578 11.6961C4.86578 11.9222 4.96372 12.1482 5.13699 12.3139L10.1091 17.2785C10.2899 17.4517 10.4858 17.5346 10.7042 17.5346C11.1788 17.5346 11.5254 17.1956 11.5254 16.736C11.5254 16.495 11.435 16.2916 11.2768 16.1409L9.58174 14.4233L7.39703 12.4269L9.15234 12.5324H18.2829C18.7801 12.5324 19.1267 12.1858 19.1267 11.6961C19.1267 11.1989 18.7801 10.8524 18.2829 10.8524H9.15234L7.40457 10.9579L9.58174 8.96149L11.2768 7.24386C11.435 7.09319 11.5254 6.88979 11.5254 6.64872C11.5254 6.18917 11.1788 5.85017 10.7042 5.85017C10.4858 5.85017 10.2824 5.93303 10.0865 6.12137L5.13699 11.0709C4.96372 11.2366 4.86578 11.4626 4.86578 11.6961Z"
    fill="currentColor" />
</svg>