<svg width="1em" height="1em" viewBox="0 0 24 24" fill="none" xmlns="http://www.w3.org/2000/svg">
  <path
    d="M19 11.846C19 12.072 18.9021 12.298 18.7288 12.4637L13.7567 17.4283C13.5759 17.6016 13.38 17.6844 13.1616 17.6844C12.6869 17.6844 12.3404 17.3454 12.3404 16.8859C12.3404 16.6448 12.4308 16.4414 12.589 16.2907L14.284 14.5731L16.4688 12.5767L14.7134 12.6822H5.58287C5.08566 12.6822 4.73912 12.3357 4.73912 11.846C4.73912 11.3488 5.08566 11.0022 5.58287 11.0022H14.7134L16.4612 11.1077L14.284 9.11133L12.589 7.39369C12.4308 7.24302 12.3404 7.03962 12.3404 6.79855C12.3404 6.33901 12.6869 6 13.1616 6C13.38 6 13.5834 6.08287 13.7793 6.27121L18.7288 11.2207C18.9021 11.3864 19 11.6124 19 11.846Z"
    fill="currentColor" />
</svg>