<svg width="1em" height="1em" viewBox="0 0 24 24" fill="none" xmlns="http://www.w3.org/2000/svg">
  <path
    d="M6.09374 20.0809C6.52315 20.0809 6.89982 19.9001 7.41963 19.4481L9.83788 17.2935C10.3954 17.8736 11.2316 18.1825 12.2787 18.1825H14.8552L17.3638 20.3371C17.861 20.7589 18.2151 20.9925 18.6219 20.9925C19.2246 20.9925 19.5787 20.5631 19.5787 19.9076V18.1825H19.9252C21.8237 18.1825 23.0893 17.0223 23.0893 15.0711V10.4682C23.0893 8.48689 21.8011 7.2966 19.8649 7.2966H18.5541V6.80692C18.5541 4.75781 17.296 3.54492 15.2319 3.54492H4.23297C2.22906 3.54492 0.910706 4.75781 0.910706 6.80692V13.8583C0.910706 15.8772 2.20646 17.0751 4.1727 17.0751H5.12192V19.0036C5.12192 19.6666 5.48353 20.0809 6.09374 20.0809ZM6.47042 16.3368C6.47042 15.8848 6.19168 15.6512 5.815 15.6512H4.41377C3.16322 15.6512 2.40987 14.9506 2.40987 13.6473V6.97266C2.40987 5.66936 3.17075 4.96122 4.41377 4.96122H15.0435C16.2941 4.96122 17.0474 5.66936 17.0474 6.97266V7.2966H12.2787C10.2748 7.2966 9.0544 8.48689 9.0544 10.4682V15.0711C9.0544 15.3876 9.08453 15.6738 9.1448 15.945L6.47042 18.4461V16.3368ZM18.2377 19.3577L15.8797 17.2182C15.5483 16.9169 15.2695 16.7812 14.825 16.7812H12.4369C11.2542 16.7812 10.5385 16.1258 10.5385 14.8753V10.6113C10.5385 9.37584 11.2542 8.70536 12.4369 8.70536H19.6992C20.8895 8.70536 21.6052 9.37584 21.6052 10.6113V14.8753C21.6052 16.1183 20.882 16.7812 19.6992 16.7812H18.8856C18.5165 16.7812 18.2377 17.0073 18.2377 17.4593V19.3577Z"
    fill="currentColor" />
</svg>