<svg width="1em" height="1em" viewBox="0 0 24 24" fill="none" xmlns="http://www.w3.org/2000/svg">
  <path
    d="M12 8.14787C12.2637 8.15541 12.5048 8.25334 12.7006 8.46428L18.4261 14.3253C18.5918 14.4911 18.6822 14.702 18.6822 14.9506C18.6822 15.4478 18.2905 15.8471 17.7933 15.8471C17.5522 15.8471 17.3186 15.7492 17.1454 15.5759L12.0075 10.2949L6.85464 15.5759C6.68137 15.7416 6.45537 15.8471 6.20676 15.8471C5.70955 15.8471 5.31781 15.4478 5.31781 14.9506C5.31781 14.702 5.40821 14.4911 5.57395 14.3253L11.3069 8.46428C11.5103 8.25334 11.7363 8.14787 12 8.14787Z"
    fill="currentColor" />
</svg>
  