<svg width="1em" height="1em" viewBox="0 0 24 24" fill="none" xmlns="http://www.w3.org/2000/svg">
  <path
    d="M16.6992 12.0178C16.6917 11.7541 16.5937 11.5131 16.3828 11.3172L10.5218 5.59174C10.356 5.426 10.1451 5.3356 9.89648 5.3356C9.39927 5.3356 9 5.72734 9 6.22455C9 6.46562 9.09793 6.69916 9.2712 6.87243L14.5522 12.0103L9.27121 17.1632C9.10547 17.3364 9 17.5624 9 17.811C9 18.3083 9.39927 18.7 9.89648 18.7C10.1451 18.7 10.356 18.6096 10.5218 18.4439L16.3828 12.7109C16.5937 12.5075 16.6992 12.2815 16.6992 12.0178Z"
    fill="currentColor" />
</svg>