<svg width="1em" height="1em" viewBox="0 0 24 24" fill="none" xmlns="http://www.w3.org/2000/svg">
  <path
    d="M7.12581 15.3725C6.8094 15.6889 6.79434 16.2539 7.13334 16.5778C7.45728 16.9169 8.02983 16.9018 8.34623 16.5854L12 12.9316L15.6537 16.5854C15.9777 16.9093 16.5351 16.9169 16.8591 16.5778C17.1981 16.2539 17.1905 15.6889 16.8666 15.365L13.2129 11.7112L16.8666 8.06501C17.1905 7.73354 17.1981 7.17606 16.8591 6.85212C16.5351 6.51311 15.9777 6.52065 15.6537 6.84458L12 10.4983L8.34623 6.84458C8.02983 6.52818 7.45728 6.51311 7.13334 6.85212C6.79434 7.17606 6.8094 7.74107 7.12581 8.05748L10.7795 11.7112L7.12581 15.3725Z"
    fill="currentColor" />
</svg>