<svg width="1em" height="1em" viewBox="0 0 24 24" fill="none" xmlns="http://www.w3.org/2000/svg">
  <path fill-rule="evenodd" clip-rule="evenodd"
    d="M9.08129 11.4213H16.9612V8.86158H14.4508C14.1872 8.86158 13.8204 8.70925 13.6467 8.52307C13.4731 8.33689 13.3674 8.00098 13.3674 7.71975V4.99471H6.98864C6.96677 4.99471 6.94977 5.00643 6.93884 5.01815C6.92062 5.03117 6.91576 5.04809 6.91576 5.07283V18.9324C6.91576 18.9506 6.92669 18.974 6.93762 18.9858C6.94856 19.004 6.97163 19.0092 6.98742 19.0092C9.75414 19.0092 14.0427 19.0092 16.8871 19.0092C16.909 19.0092 16.9078 18.9975 16.9199 18.9858C16.9369 18.974 16.96 18.9493 16.96 18.9324V17.4794H9.08129C8.57847 17.4794 8.1631 17.0367 8.1631 16.4951V12.4043C8.1631 11.8639 8.57604 11.4213 9.08129 11.4213ZM11.5711 14.7218L12.335 14.9692C12.284 15.1983 12.2027 15.391 12.0921 15.5446C11.9816 15.6983 11.8456 15.8154 11.6816 15.8936C11.5177 15.9717 11.31 16.0107 11.0573 16.0107C10.7501 16.0107 10.4999 15.9626 10.3055 15.8675C10.1112 15.7712 9.94361 15.6032 9.80272 15.3637C9.66184 15.1241 9.59018 14.8155 9.59018 14.4406C9.59018 13.9406 9.71406 13.5565 9.96183 13.2883C10.2108 13.0201 10.5618 12.886 11.016 12.886C11.3707 12.886 11.6513 12.9628 11.8541 13.1164C12.0569 13.2701 12.2087 13.507 12.3071 13.826L11.5395 14.0083C11.5128 13.9172 11.4849 13.8495 11.4545 13.8078C11.4047 13.7362 11.3452 13.6815 11.2747 13.6437C11.2043 13.6047 11.1254 13.5865 11.0379 13.5865C10.8399 13.5865 10.6881 13.6711 10.5825 13.8416C10.5035 13.9679 10.4634 14.1658 10.4634 14.4353C10.4634 14.77 10.5108 14.9991 10.6055 15.1241C10.7003 15.2478 10.8339 15.3103 11.0063 15.3103C11.1727 15.3103 11.299 15.2608 11.3841 15.1592C11.4715 15.0577 11.5322 14.9132 11.5711 14.7218ZM12.6144 14.9587L13.4415 14.9028C13.4597 15.046 13.4961 15.1566 13.5508 15.2309C13.6407 15.3532 13.7682 15.4144 13.9358 15.4144C14.0597 15.4144 14.1556 15.3832 14.2224 15.3207C14.2904 15.2582 14.3232 15.1853 14.3232 15.1033C14.3232 15.0251 14.2917 14.9548 14.2285 14.8923C14.1654 14.8298 14.016 14.7726 13.784 14.7166C13.4014 14.6254 13.1306 14.5031 12.9678 14.3494C12.8039 14.1971 12.7213 14.0031 12.7213 13.7661C12.7213 13.6112 12.7638 13.4654 12.8476 13.3274C12.9314 13.1894 13.0577 13.08 13.2265 13.0019C13.3953 12.9225 13.6261 12.8834 13.92 12.8834C14.2807 12.8834 14.5552 12.955 14.7435 13.0995C14.9329 13.2427 15.0447 13.4719 15.0811 13.7857L14.2613 13.8377C14.2394 13.701 14.1933 13.6008 14.1241 13.5383C14.0536 13.4758 13.9577 13.4445 13.835 13.4445C13.7342 13.4445 13.6577 13.468 13.6054 13.5135C13.5544 13.5591 13.5289 13.6151 13.5289 13.6815C13.5289 13.7297 13.5496 13.7726 13.5909 13.8104C13.631 13.8508 13.7281 13.8872 13.8811 13.9211C14.2625 14.0096 14.5346 14.0981 14.6985 14.188C14.8637 14.2778 14.9839 14.3898 15.058 14.5226C15.1333 14.6554 15.1698 14.8051 15.1698 14.9705C15.1698 15.1645 15.12 15.3428 15.0204 15.5069C14.9196 15.6696 14.7811 15.7946 14.6014 15.8792C14.4216 15.9639 14.1957 16.0055 13.9237 16.0055C13.4439 16.0055 13.1123 15.9066 12.9277 15.7087C12.7431 15.5147 12.6387 15.2634 12.6144 14.9587ZM15.3398 12.9355H16.2507L16.8859 15.1111L17.5126 12.9355H18.3968L17.3499 15.9587H16.4062L15.3398 12.9355ZM17.8758 11.4213H19.0818C19.5871 11.4213 20 11.8652 20 12.4056V16.4964C20 17.0367 19.5858 17.4807 19.0818 17.4807H17.8758V19.2449C17.8758 19.4545 17.7968 19.6407 17.6693 19.7787C17.5406 19.9167 17.3669 20 17.1713 20C13.5957 20 10.2983 20 6.70443 20C6.50889 20 6.33521 19.9167 6.20647 19.7787C6.07773 19.6407 6 19.4545 6 19.2449V4.76166C6 4.55204 6.07895 4.36586 6.20647 4.22785C6.33521 4.08984 6.51375 4.00651 6.70443 4.00651H13.8362C13.852 4 13.869 4 13.886 4C13.9637 4 14.0427 4.03646 14.0986 4.08984H14.1095C14.1204 4.09635 14.1265 4.10155 14.1374 4.11327L17.7798 8.06608C17.8418 8.13248 17.8867 8.22231 17.8867 8.32387C17.8867 8.35381 17.8806 8.37725 17.8758 8.4085V11.4213ZM14.1994 7.64163V5.16397L16.8021 7.98926H14.5236C14.4338 7.98926 14.356 7.9476 14.2941 7.8877C14.2382 7.82781 14.1994 7.73798 14.1994 7.64163Z"
    fill="currentColor" />
</svg>
  