<svg width="1em" height="1em" viewBox="0 0 24 24" fill="none" xmlns="http://www.w3.org/2000/svg">
  <path
    d="M8.45929 19.0564H15.5408C16.7085 19.0564 17.281 18.4763 17.281 17.2107V11.8544C17.281 10.7319 16.829 10.1518 15.9099 10.0313V8.27595C15.9099 5.41323 14.0039 4.0346 12 4.0346C9.99612 4.0346 8.09015 5.41323 8.09015 8.27595V10.0313C7.17106 10.1518 6.71906 10.7319 6.71906 11.8544V17.2107C6.71906 18.4763 7.2916 19.0564 8.45929 19.0564ZM9.53658 8.14035C9.53658 6.38505 10.6515 5.42076 12 5.42076C13.341 5.42076 14.4635 6.38505 14.4635 8.14035V10.0087H9.53658V8.14035ZM8.70036 17.6928C8.36889 17.6928 8.20315 17.5346 8.20315 17.1429V11.9222C8.20315 11.5229 8.36889 11.3797 8.70036 11.3797H15.3072C15.6387 11.3797 15.7969 11.5229 15.7969 11.9222V17.1429C15.7969 17.5346 15.6387 17.6928 15.3072 17.6928H8.70036Z"
    fill="currentColor" />
</svg>