<svg width="1em" height="1em" viewBox="0 0 24 24" fill="none" xmlns="http://www.w3.org/2000/svg">
  <path
    d="M7.9846 19.87H16.0153C17.635 19.87 18.4712 19.0187 18.4712 17.3915V10.5511C18.4712 9.49637 18.3356 9.01423 17.6802 8.34375L13.7402 4.34347C13.0998 3.69559 12.5725 3.54492 11.6233 3.54492H7.9846C6.37244 3.54492 5.52869 4.39621 5.52869 6.03097V17.3915C5.52869 19.0187 6.37244 19.87 7.9846 19.87ZM8.11267 18.3633C7.38946 18.3633 7.02785 17.9866 7.02785 17.2935V6.12137C7.02785 5.43583 7.38946 5.05162 8.1202 5.05162H11.3144V9.14983C11.3144 10.2422 11.8493 10.7695 12.9341 10.7695H16.972V17.2935C16.972 17.9866 16.6104 18.3633 15.8797 18.3633H8.11267ZM13.0772 9.45117C12.7608 9.45117 12.6252 9.31557 12.6252 9.0067V5.24749L16.7686 9.45117H13.0772ZM14.6517 12.7433H9.21256C8.92629 12.7433 8.72288 12.9467 8.72288 13.2104C8.72288 13.4816 8.92629 13.6925 9.21256 13.6925H14.6517C14.9229 13.6925 15.1263 13.4816 15.1263 13.2104C15.1263 12.9467 14.9229 12.7433 14.6517 12.7433ZM14.6517 15.2595H9.21256C8.92629 15.2595 8.72288 15.4704 8.72288 15.7416C8.72288 16.0053 8.92629 16.2087 9.21256 16.2087H14.6517C14.9229 16.2087 15.1263 16.0053 15.1263 15.7416C15.1263 15.4704 14.9229 15.2595 14.6517 15.2595Z"
    fill="currentColor" />
</svg>
  