<svg width="1em" height="1em" viewBox="0 0 24 24" fill="none" xmlns="http://www.w3.org/2000/svg">
  <path
    d="M17.846 18.8756C17.846 18.4085 17.5069 18.0544 17.0399 18.0544H12.0753C12.2787 18.0318 12.4746 17.9414 12.6253 17.7832L17.5823 12.8186C17.7631 12.6378 17.846 12.4344 17.846 12.2084C17.846 11.7414 17.4994 11.3948 17.0399 11.3948C16.8063 11.3948 16.5954 11.4928 16.4447 11.6434L14.7271 13.3385L12.7759 15.5232L12.8362 13.8959V4.59208C12.8362 4.08734 12.4972 3.7408 12 3.7408C11.5028 3.7408 11.1638 4.08734 11.1638 4.59208V13.8959L11.224 15.5156L9.27285 13.3385L7.55522 11.6434C7.40455 11.4928 7.19361 11.3948 6.95254 11.3948C6.493 11.3948 6.15399 11.7414 6.15399 12.2084C6.15399 12.4344 6.23686 12.6378 6.41766 12.8186L11.3747 17.7832C11.5254 17.9414 11.7212 18.0318 11.9246 18.0544H6.97514C6.50053 18.0544 6.15399 18.4085 6.15399 18.8756C6.15399 19.3426 6.50053 19.6967 6.97514 19.6967H17.0399C17.5069 19.6967 17.846 19.3426 17.846 18.8756Z"
    fill="currentColor" />
</svg>
  