<svg width="1em" height="1em" viewBox="0 0 24 24" fill="none" xmlns="http://www.w3.org/2000/svg">
  <rect x="10" y="7" width="4" height="9" fill="var(--secondary-color, white)" />
  <path
    d="M11.9925 19.4933C16.264 19.4933 19.7896 15.9676 19.7896 11.7037C19.7896 7.43973 16.2564 3.91406 11.9849 3.91406C7.72099 3.91406 4.20285 7.43973 4.20285 11.7037C4.20285 15.9676 7.72852 19.4933 11.9925 19.4933ZM11.9925 12.9919C11.548 12.9919 11.2919 12.7433 11.2768 12.2913L11.1713 8.53209C11.1563 8.06501 11.4877 7.74107 11.9849 7.74107C12.4671 7.74107 12.8212 8.07254 12.8061 8.53962L12.6856 12.2913C12.6705 12.7508 12.4219 12.9919 11.9925 12.9919ZM11.9925 15.5985C11.4802 15.5985 11.0583 15.2294 11.0583 14.7321C11.0583 14.2349 11.4727 13.8658 11.9925 13.8658C12.5047 13.8658 12.9191 14.2349 12.9191 14.7321C12.9191 15.2369 12.4972 15.5985 11.9925 15.5985Z"
    fill="currentColor" />
</svg>