<svg width="1em" height="1em" viewBox="0 0 24 24" fill="none" xmlns="http://www.w3.org/2000/svg">
  <path
    d="M12.0066 17.3515C17.3843 17.3515 21 13.0153 21 11.6725C21 10.3297 17.3712 6 12.0066 6C6.70742 6 3 10.3297 3 11.6725C3 13.0153 6.69432 17.3515 12.0066 17.3515ZM12.0066 16.0677C7.82751 16.0677 4.51965 12.5895 4.51965 11.6725C4.51965 10.9061 7.82751 7.28384 12.0066 7.28384C16.1659 7.28384 19.4804 10.9061 19.4804 11.6725C19.4804 12.5895 16.1659 16.0677 12.0066 16.0677ZM12.0066 15.19C13.9585 15.19 15.524 13.5852 15.524 11.6725C15.524 9.71397 13.9585 8.16157 12.0066 8.16157C10.0415 8.16157 8.46943 9.71397 8.47598 11.6725C8.48908 13.5852 10.0415 15.19 12.0066 15.19ZM12 12.8057C11.3712 12.8057 10.8603 12.2948 10.8603 11.6725C10.8603 11.0502 11.3712 10.5393 12 10.5393C12.6288 10.5393 13.1397 11.0502 13.1397 11.6725C13.1397 12.2948 12.6288 12.8057 12 12.8057Z"
    fill="currentColor" />
</svg>