<svg width="1em" height="1em" viewBox="0 0 24 24" fill="none" xmlns="http://www.w3.org/2000/svg">
  <g clip-path="url(#clip0_47_4724)">
    <mask id="path-1-outside-1_47_4724" maskUnits="userSpaceOnUse" x="-1.00006" y="4.24995"
      width="26" height="16" fill="var(--primary-color, currentColor)">
      <rect fill="var(--primary-color, white)" x="-1.00006" y="4.24995" width="26" height="16" />
      <path fillRule="evenodd" clipRule="evenodd"
        d="M20.2657 14.4874C20.3308 14.5313 20.4076 14.5548 20.4861 14.5549C20.5344 14.5544 20.5822 14.5451 20.6272 14.5273L23.7474 13.3301C23.796 13.3114 23.8403 13.2833 23.8779 13.2474C23.9156 13.2115 23.9457 13.1684 23.9666 13.1208C23.9875 13.0732 23.9988 13.0219 23.9998 12.9699C24.0008 12.9179 23.9915 12.8662 23.9724 12.8178L21.0563 5.49838C21.0186 5.40349 20.9455 5.32696 20.8524 5.28491C20.7593 5.24286 20.6536 5.23858 20.5574 5.27298L17.3789 6.41026C17.3289 6.42816 17.2831 6.45596 17.2441 6.49201C17.2052 6.52806 17.1739 6.57161 17.1522 6.62004C17.1305 6.66847 17.1188 6.72079 17.1178 6.77385C17.1168 6.82692 17.1265 6.87964 17.1464 6.92885L17.3552 7.44698L16.0352 7.87972C15.5442 7.68978 13.8154 7.02026 13.3283 6.80076C12.5503 6.45047 11.841 6.72874 11.0168 7.25567C10.4352 6.81027 9.89078 6.80877 9.15404 7.22599C8.64254 7.51484 7.84337 7.99679 7.47412 8.22062L6.85001 7.8693L7.13589 7.27289C7.18044 7.1801 7.18691 7.07356 7.15391 6.97606C7.12092 6.87855 7.05109 6.79783 6.95935 6.75115L4.10196 5.29309C4.05577 5.26951 4.00537 5.25527 3.95366 5.2512C3.90195 5.24713 3.84995 5.25331 3.80064 5.26938C3.75132 5.28545 3.70566 5.3111 3.66628 5.34486C3.6269 5.37861 3.59457 5.41981 3.57115 5.46609L0.0426593 12.4356C-0.00450335 12.5284 -0.0129882 12.6362 0.0190591 12.7353C0.0511065 12.8344 0.12108 12.9168 0.213685 12.9644L3.21728 14.5115C3.27316 14.5401 3.33502 14.5549 3.39776 14.5549C3.44054 14.5543 3.48297 14.547 3.52347 14.5332C3.57335 14.5163 3.61936 14.4896 3.65881 14.4547C3.69825 14.4198 3.73035 14.3773 3.75321 14.3299L3.98246 13.8516L4.34332 14.0993C4.27493 14.2405 4.21374 14.3853 4.16003 14.5332C4.14745 14.5725 4.14107 14.6136 4.14111 14.6549C4.14111 15.6472 5.16294 16.1963 5.59321 16.3833C5.70973 16.6793 5.98532 17.2149 6.49489 17.3681C6.58446 17.3945 6.67737 17.4078 6.77074 17.4075C6.91541 17.4015 7.05688 17.3722 7.19011 17.3218C7.22227 17.3828 7.2578 17.4422 7.29656 17.4995C7.43768 17.7085 7.61894 17.8872 7.82979 18.0254C8.08116 18.1595 8.37098 18.203 8.65064 18.1488C8.82299 18.4625 9.08789 18.7154 9.40922 18.8731C9.52757 18.922 9.65432 18.9475 9.7824 18.9479C9.91602 18.9479 10.0483 18.9211 10.1713 18.8691C10.5041 18.7074 10.7906 18.4709 11.011 18.1819C11.2888 18.4003 11.5657 18.6199 11.8415 18.8408C12.0985 19.0352 12.4135 19.1373 12.7357 19.1304C13.0055 19.1301 13.2717 19.0677 13.5135 18.9479C13.7623 18.8315 13.9714 18.6446 14.1149 18.4104C14.179 18.3059 14.2287 18.1939 14.2633 18.0776C14.6517 18.0709 15.0285 17.9411 15.3388 17.7065C15.551 17.5461 15.7245 17.3424 15.8489 17.1106C15.9223 17.1208 15.9968 17.1249 16.0717 17.1226C16.2771 17.1214 16.4808 17.0857 16.6743 17.017C16.9912 16.9073 17.2725 16.7138 17.4882 16.4571C17.6215 16.2986 17.7267 16.1196 17.8003 15.9279C17.8159 15.9279 17.8315 15.9278 17.8471 15.9274C18.2563 15.9398 18.6544 15.793 18.9576 15.518C19.09 15.3939 19.1958 15.2442 19.2687 15.078C19.3415 14.9118 19.3798 14.7326 19.3813 14.5511C19.3827 14.3697 19.3474 14.1898 19.2772 14.0225L19.271 14.0079L19.8891 13.7334L20.1208 14.3082C20.1502 14.381 20.2006 14.4434 20.2657 14.4874ZM5.18395 14.1988C5.19484 14.183 5.20458 14.1664 5.21307 14.1491C5.26696 14.0587 5.32437 13.9703 5.38519 13.8841C5.45881 13.8265 5.54786 13.792 5.64107 13.785C5.73429 13.778 5.82749 13.7988 5.90891 13.8447C5.94115 13.8543 5.97097 13.8707 5.99636 13.8928C6.02176 13.9149 6.04216 13.9421 6.05618 13.9727C6.07021 14.0033 6.07754 14.0365 6.0777 14.0702C6.07785 14.1038 6.07082 14.1371 6.05708 14.1679C5.90733 14.6514 5.75482 15.1743 5.65197 15.5337C5.34933 15.3654 4.97181 15.0849 4.9324 14.716C5.00404 14.5378 5.08812 14.3649 5.18395 14.1988ZM4.74806 13.4208L4.32735 13.1321L6.50853 8.5817L7.28694 9.02018C7.34599 9.05349 7.41263 9.071 7.48043 9.07102C7.55297 9.07169 7.62429 9.05233 7.68653 9.01506C7.69874 9.006 8.88449 8.28328 9.5418 7.91167C9.8707 7.7261 10.0796 7.66338 10.2907 7.737C9.81131 8.0975 9.44696 8.54582 9.19769 9.54348C9.03002 10.0085 9.05355 10.5211 9.26311 10.9688C9.37304 11.1245 9.51425 11.2555 9.67771 11.3535C9.84118 11.4515 10.0233 11.5143 10.2124 11.5379C10.3683 11.5708 10.5295 11.5691 10.6846 11.5329C10.8397 11.4967 10.985 11.4268 11.1101 11.3282C11.4666 11.067 11.7149 10.6841 11.808 10.252L12.2226 9.98089C13.4151 10.6448 14.6579 11.2143 15.9394 11.6841C16.3067 12.0371 17.9799 13.6469 18.3826 14.1001L18.3887 14.105C18.4016 14.1191 18.4157 14.1323 18.4307 14.1445L18.4348 14.1478C18.4751 14.1896 18.5088 14.2376 18.5345 14.29C18.5706 14.3637 18.59 14.4443 18.5915 14.5263C18.593 14.6083 18.5765 14.6897 18.5432 14.7646C18.5098 14.8395 18.4604 14.9062 18.3984 14.96C18.2661 15.0582 18.1097 15.1189 17.9458 15.1359C17.7819 15.1528 17.6164 15.1252 17.4668 15.0561C17.2347 14.9012 16.0178 13.7328 15.3085 13.0326C15.2331 12.9643 15.1342 12.9278 15.0324 12.9308C14.9307 12.9338 14.8341 12.976 14.7628 13.0486C14.6915 13.1212 14.6511 13.2186 14.65 13.3203C14.6489 13.4221 14.6871 13.5203 14.7568 13.5945C15.0729 13.9054 16.6681 15.4699 17.0306 15.7118L17.0358 15.715C16.9968 15.7991 16.9468 15.8781 16.8868 15.9499C16.7614 16.0999 16.5973 16.2126 16.4122 16.2758C16.2989 16.3256 16.1753 16.3473 16.0518 16.339C15.9695 16.3335 15.8889 16.3149 15.813 16.284C15.7944 16.2736 15.775 16.2647 15.7549 16.2575C15.7372 16.2485 15.7199 16.2388 15.7029 16.2285C15.193 15.7733 13.809 14.3901 13.7952 14.3764C13.7209 14.3046 13.6213 14.2649 13.518 14.2658C13.4147 14.2666 13.3159 14.3081 13.2428 14.3812C13.1697 14.4542 13.1283 14.5531 13.1274 14.6564C13.1265 14.7597 13.1662 14.8592 13.238 14.9336C13.294 14.9895 14.5792 16.2741 15.1348 16.7755C15.0885 16.8544 15.0318 16.9272 14.9659 16.9918C14.8329 17.122 14.6674 17.2142 14.4866 17.2586C14.3925 17.2903 14.2928 17.302 14.1939 17.2927C14.095 17.2835 13.9991 17.2536 13.9125 17.205L12.5127 15.8052L11.9551 16.3628L13.3549 17.7626C13.401 17.8038 13.4499 17.8412 13.501 17.8747C13.4856 17.9206 13.4646 17.9646 13.4386 18.006C13.3723 18.111 13.2757 18.1935 13.1616 18.2426C13.034 18.3116 12.8907 18.3463 12.7456 18.3434C12.6006 18.3404 12.4588 18.2998 12.3341 18.2256C11.9241 17.8976 11.5597 17.6108 11.3783 17.4685C11.4248 17.2932 11.4374 17.1104 11.4148 16.93C11.3887 16.7209 11.3162 16.5202 11.2026 16.3427C11.0857 16.196 10.9386 16.0761 10.7714 15.9911C10.6042 15.906 10.4207 15.8578 10.2332 15.8498C10.2514 15.6394 10.2126 15.428 10.1208 15.2378C10.029 15.0477 9.88755 14.8858 9.71147 14.7692C9.55258 14.6523 9.36955 14.5723 9.17578 14.5352C9.06932 14.5148 8.96111 14.5077 8.85356 14.5137C8.80013 14.239 8.63533 14.0265 8.44435 13.894C8.16249 13.7172 7.82487 13.6519 7.49741 13.7107C7.2609 13.7532 7.04195 13.8582 6.86218 14.0126C6.85549 13.8925 6.82754 13.7734 6.77855 13.6611C6.67641 13.4272 6.49027 13.24 6.25687 13.1366C6.00893 13.0037 5.72277 12.9603 5.44658 13.0137C5.17422 13.0663 4.92796 13.21 4.74806 13.4208ZM3.48639 13.0643L5.96948 7.88453C5.97578 7.86886 5.9831 7.85358 5.9914 7.83879L6.25909 7.28038L4.09565 6.17699L0.922614 12.4427L3.21767 13.6249L3.45608 13.1276C3.46424 13.1057 3.47436 13.0846 3.48639 13.0643ZM7.09354 16.4669C7.41315 15.9669 7.86761 15.2349 7.93737 15.0782C7.9412 15.0706 7.94511 15.063 7.94912 15.0555L7.95174 15.0506C7.9634 15.0291 7.97583 15.008 7.989 14.9875C8.07761 14.8308 8.13815 14.6414 7.99472 14.5418C7.87981 14.4791 7.74614 14.4597 7.61815 14.4874C7.49016 14.515 7.37639 14.5878 7.29761 14.6924C6.95144 15.1524 6.63109 15.6312 6.33806 16.1268C6.42436 16.3329 6.57134 16.5689 6.72149 16.6134C6.83717 16.6478 6.99054 16.5487 7.09354 16.4669ZM8.64524 15.427C8.51983 15.6851 8.0447 16.4392 7.82034 16.792C7.88304 17.0109 8.01893 17.2018 8.20534 17.3326C8.26354 17.3625 8.32724 17.3801 8.39251 17.3844C8.45778 17.3887 8.52324 17.3795 8.58483 17.3575L9.42617 15.9152C9.45961 15.826 9.46176 15.7282 9.43225 15.6377C9.40275 15.5472 9.34335 15.4694 9.26381 15.4171C9.2033 15.3694 9.13346 15.3349 9.0588 15.3158C8.98414 15.2967 8.90631 15.2935 8.83033 15.3063C8.7674 15.3167 8.70961 15.3471 8.66548 15.3929C8.65891 15.4042 8.65216 15.4156 8.64524 15.427ZM19.5943 13.002L17.6504 8.1794L16.1471 8.67219C16.0609 8.7003 15.9678 8.69807 15.8831 8.66589L15.8357 8.64758C15.4967 8.51672 13.5515 7.7659 13.0064 7.51994C12.6553 7.36231 12.2844 7.37846 11.4269 7.92937L11.2575 8.03774C10.5691 8.47476 10.2235 8.69465 9.96337 9.7346C9.83017 10.2674 9.89165 10.4833 9.94012 10.5621C10.0024 10.6662 10.1466 10.7083 10.3764 10.7659C10.4257 10.7742 10.4762 10.7714 10.5243 10.7578C10.5724 10.7442 10.6169 10.72 10.6546 10.6871C10.7657 10.6033 10.8585 10.4977 10.9273 10.3767C10.9961 10.2558 11.0394 10.122 11.0545 9.98365C11.0597 9.92424 11.0783 9.86677 11.1088 9.81558C11.1394 9.76438 11.1812 9.7208 11.2311 9.6881L11.9897 9.19197C12.0495 9.15308 12.1187 9.13115 12.19 9.12851C12.2612 9.12588 12.3319 9.14263 12.3944 9.17699L12.3961 9.17794C12.4775 9.22233 15.0904 10.6478 16.2417 10.9503C16.3064 10.9676 16.3657 11.0008 16.4143 11.0468L16.4193 11.0517C16.5454 11.1725 18.1098 12.6714 18.7752 13.3648L19.5943 13.002ZM20.7056 13.6528L18.0295 7.01397L20.4648 6.14308L23.0913 12.7386L20.7056 13.6528ZM9.31425 17.718C9.43799 17.9273 9.65906 18.2276 9.86595 18.1413C10.2094 17.9624 10.4739 17.6618 10.6076 17.2984C10.6339 17.2179 10.644 17.1331 10.6372 17.0487C10.6304 16.9643 10.607 16.8822 10.5682 16.807C10.5082 16.7482 10.4371 16.7022 10.3589 16.6716C10.2808 16.641 10.1973 16.6265 10.1134 16.6288L9.31425 17.718Z" />
    </mask>
    <path fillRule="evenodd" clipRule="evenodd"
      d="M20.2657 14.4874C20.3308 14.5313 20.4076 14.5548 20.4861 14.5549C20.5344 14.5544 20.5822 14.5451 20.6272 14.5273L23.7474 13.3301C23.796 13.3114 23.8403 13.2833 23.8779 13.2474C23.9156 13.2115 23.9457 13.1684 23.9666 13.1208C23.9875 13.0732 23.9988 13.0219 23.9998 12.9699C24.0008 12.9179 23.9915 12.8662 23.9724 12.8178L21.0563 5.49838C21.0186 5.40349 20.9455 5.32696 20.8524 5.28491C20.7593 5.24286 20.6536 5.23858 20.5574 5.27298L17.3789 6.41026C17.3289 6.42816 17.2831 6.45596 17.2441 6.49201C17.2052 6.52806 17.1739 6.57161 17.1522 6.62004C17.1305 6.66847 17.1188 6.72079 17.1178 6.77385C17.1168 6.82692 17.1265 6.87964 17.1464 6.92885L17.3552 7.44698L16.0352 7.87972C15.5442 7.68978 13.8154 7.02026 13.3283 6.80076C12.5503 6.45047 11.841 6.72874 11.0168 7.25567C10.4352 6.81027 9.89078 6.80877 9.15404 7.22599C8.64254 7.51484 7.84337 7.99679 7.47412 8.22062L6.85001 7.8693L7.13589 7.27289C7.18044 7.1801 7.18691 7.07356 7.15391 6.97606C7.12092 6.87855 7.05109 6.79783 6.95935 6.75115L4.10196 5.29309C4.05577 5.26951 4.00537 5.25527 3.95366 5.2512C3.90195 5.24713 3.84995 5.25331 3.80064 5.26938C3.75132 5.28545 3.70566 5.3111 3.66628 5.34486C3.6269 5.37861 3.59457 5.41981 3.57115 5.46609L0.0426593 12.4356C-0.00450335 12.5284 -0.0129882 12.6362 0.0190591 12.7353C0.0511065 12.8344 0.12108 12.9168 0.213685 12.9644L3.21728 14.5115C3.27316 14.5401 3.33502 14.5549 3.39776 14.5549C3.44054 14.5543 3.48297 14.547 3.52347 14.5332C3.57335 14.5163 3.61936 14.4896 3.65881 14.4547C3.69825 14.4198 3.73035 14.3773 3.75321 14.3299L3.98246 13.8516L4.34332 14.0993C4.27493 14.2405 4.21374 14.3853 4.16003 14.5332C4.14745 14.5725 4.14107 14.6136 4.14111 14.6549C4.14111 15.6472 5.16294 16.1963 5.59321 16.3833C5.70973 16.6793 5.98532 17.2149 6.49489 17.3681C6.58446 17.3945 6.67737 17.4078 6.77074 17.4075C6.91541 17.4015 7.05688 17.3722 7.19011 17.3218C7.22227 17.3828 7.2578 17.4422 7.29656 17.4995C7.43768 17.7085 7.61894 17.8872 7.82979 18.0254C8.08116 18.1595 8.37098 18.203 8.65064 18.1488C8.82299 18.4625 9.08789 18.7154 9.40922 18.8731C9.52757 18.922 9.65432 18.9475 9.7824 18.9479C9.91602 18.9479 10.0483 18.9211 10.1713 18.8691C10.5041 18.7074 10.7906 18.4709 11.011 18.1819C11.2888 18.4003 11.5657 18.6199 11.8415 18.8408C12.0985 19.0352 12.4135 19.1373 12.7357 19.1304C13.0055 19.1301 13.2717 19.0677 13.5135 18.9479C13.7623 18.8315 13.9714 18.6446 14.1149 18.4104C14.179 18.3059 14.2287 18.1939 14.2633 18.0776C14.6517 18.0709 15.0285 17.9411 15.3388 17.7065C15.551 17.5461 15.7245 17.3424 15.8489 17.1106C15.9223 17.1208 15.9968 17.1249 16.0717 17.1226C16.2771 17.1214 16.4808 17.0857 16.6743 17.017C16.9912 16.9073 17.2725 16.7138 17.4882 16.4571C17.6215 16.2986 17.7267 16.1196 17.8003 15.9279C17.8159 15.9279 17.8315 15.9278 17.8471 15.9274C18.2563 15.9398 18.6544 15.793 18.9576 15.518C19.09 15.3939 19.1958 15.2442 19.2687 15.078C19.3415 14.9118 19.3798 14.7326 19.3813 14.5511C19.3827 14.3697 19.3474 14.1898 19.2772 14.0225L19.271 14.0079L19.8891 13.7334L20.1208 14.3082C20.1502 14.381 20.2006 14.4434 20.2657 14.4874ZM5.18395 14.1988C5.19484 14.183 5.20458 14.1664 5.21307 14.1491C5.26696 14.0587 5.32437 13.9703 5.38519 13.8841C5.45881 13.8265 5.54786 13.792 5.64107 13.785C5.73429 13.778 5.82749 13.7988 5.90891 13.8447C5.94115 13.8543 5.97097 13.8707 5.99636 13.8928C6.02176 13.9149 6.04216 13.9421 6.05618 13.9727C6.07021 14.0033 6.07754 14.0365 6.0777 14.0702C6.07785 14.1038 6.07082 14.1371 6.05708 14.1679C5.90733 14.6514 5.75482 15.1743 5.65197 15.5337C5.34933 15.3654 4.97181 15.0849 4.9324 14.716C5.00404 14.5378 5.08812 14.3649 5.18395 14.1988ZM4.74806 13.4208L4.32735 13.1321L6.50853 8.5817L7.28694 9.02018C7.34599 9.05349 7.41263 9.071 7.48043 9.07102C7.55297 9.07169 7.62429 9.05233 7.68653 9.01506C7.69874 9.006 8.88449 8.28328 9.5418 7.91167C9.8707 7.7261 10.0796 7.66338 10.2907 7.737C9.81131 8.0975 9.44696 8.54582 9.19769 9.54348C9.03002 10.0085 9.05355 10.5211 9.26311 10.9688C9.37304 11.1245 9.51425 11.2555 9.67771 11.3535C9.84118 11.4515 10.0233 11.5143 10.2124 11.5379C10.3683 11.5708 10.5295 11.5691 10.6846 11.5329C10.8397 11.4967 10.985 11.4268 11.1101 11.3282C11.4666 11.067 11.7149 10.6841 11.808 10.252L12.2226 9.98089C13.4151 10.6448 14.6579 11.2143 15.9394 11.6841C16.3067 12.0371 17.9799 13.6469 18.3826 14.1001L18.3887 14.105C18.4016 14.1191 18.4157 14.1323 18.4307 14.1445L18.4348 14.1478C18.4751 14.1896 18.5088 14.2376 18.5345 14.29C18.5706 14.3637 18.59 14.4443 18.5915 14.5263C18.593 14.6083 18.5765 14.6897 18.5432 14.7646C18.5098 14.8395 18.4604 14.9062 18.3984 14.96C18.2661 15.0582 18.1097 15.1189 17.9458 15.1359C17.7819 15.1528 17.6164 15.1252 17.4668 15.0561C17.2347 14.9012 16.0178 13.7328 15.3085 13.0326C15.2331 12.9643 15.1342 12.9278 15.0324 12.9308C14.9307 12.9338 14.8341 12.976 14.7628 13.0486C14.6915 13.1212 14.6511 13.2186 14.65 13.3203C14.6489 13.4221 14.6871 13.5203 14.7568 13.5945C15.0729 13.9054 16.6681 15.4699 17.0306 15.7118L17.0358 15.715C16.9968 15.7991 16.9468 15.8781 16.8868 15.9499C16.7614 16.0999 16.5973 16.2126 16.4122 16.2758C16.2989 16.3256 16.1753 16.3473 16.0518 16.339C15.9695 16.3335 15.8889 16.3149 15.813 16.284C15.7944 16.2736 15.775 16.2647 15.7549 16.2575C15.7372 16.2485 15.7199 16.2388 15.7029 16.2285C15.193 15.7733 13.809 14.3901 13.7952 14.3764C13.7209 14.3046 13.6213 14.2649 13.518 14.2658C13.4147 14.2666 13.3159 14.3081 13.2428 14.3812C13.1697 14.4542 13.1283 14.5531 13.1274 14.6564C13.1265 14.7597 13.1662 14.8592 13.238 14.9336C13.294 14.9895 14.5792 16.2741 15.1348 16.7755C15.0885 16.8544 15.0318 16.9272 14.9659 16.9918C14.8329 17.122 14.6674 17.2142 14.4866 17.2586C14.3925 17.2903 14.2928 17.302 14.1939 17.2927C14.095 17.2835 13.9991 17.2536 13.9125 17.205L12.5127 15.8052L11.9551 16.3628L13.3549 17.7626C13.401 17.8038 13.4499 17.8412 13.501 17.8747C13.4856 17.9206 13.4646 17.9646 13.4386 18.006C13.3723 18.111 13.2757 18.1935 13.1616 18.2426C13.034 18.3116 12.8907 18.3463 12.7456 18.3434C12.6006 18.3404 12.4588 18.2998 12.3341 18.2256C11.9241 17.8976 11.5597 17.6108 11.3783 17.4685C11.4248 17.2932 11.4374 17.1104 11.4148 16.93C11.3887 16.7209 11.3162 16.5202 11.2026 16.3427C11.0857 16.196 10.9386 16.0761 10.7714 15.9911C10.6042 15.906 10.4207 15.8578 10.2332 15.8498C10.2514 15.6394 10.2126 15.428 10.1208 15.2378C10.029 15.0477 9.88755 14.8858 9.71147 14.7692C9.55258 14.6523 9.36955 14.5723 9.17578 14.5352C9.06932 14.5148 8.96111 14.5077 8.85356 14.5137C8.80013 14.239 8.63533 14.0265 8.44435 13.894C8.16249 13.7172 7.82487 13.6519 7.49741 13.7107C7.2609 13.7532 7.04195 13.8582 6.86218 14.0126C6.85549 13.8925 6.82754 13.7734 6.77855 13.6611C6.67641 13.4272 6.49027 13.24 6.25687 13.1366C6.00893 13.0037 5.72277 12.9603 5.44658 13.0137C5.17422 13.0663 4.92796 13.21 4.74806 13.4208ZM3.48639 13.0643L5.96948 7.88453C5.97578 7.86886 5.9831 7.85358 5.9914 7.83879L6.25909 7.28038L4.09565 6.17699L0.922614 12.4427L3.21767 13.6249L3.45608 13.1276C3.46424 13.1057 3.47436 13.0846 3.48639 13.0643ZM7.09354 16.4669C7.41315 15.9669 7.86761 15.2349 7.93737 15.0782C7.9412 15.0706 7.94511 15.063 7.94912 15.0555L7.95174 15.0506C7.9634 15.0291 7.97583 15.008 7.989 14.9875C8.07761 14.8308 8.13815 14.6414 7.99472 14.5418C7.87981 14.4791 7.74614 14.4597 7.61815 14.4874C7.49016 14.515 7.37639 14.5878 7.29761 14.6924C6.95144 15.1524 6.63109 15.6312 6.33806 16.1268C6.42436 16.3329 6.57134 16.5689 6.72149 16.6134C6.83717 16.6478 6.99054 16.5487 7.09354 16.4669ZM8.64524 15.427C8.51983 15.6851 8.0447 16.4392 7.82034 16.792C7.88304 17.0109 8.01893 17.2018 8.20534 17.3326C8.26354 17.3625 8.32724 17.3801 8.39251 17.3844C8.45778 17.3887 8.52324 17.3795 8.58483 17.3575L9.42617 15.9152C9.45961 15.826 9.46176 15.7282 9.43225 15.6377C9.40275 15.5472 9.34335 15.4694 9.26381 15.4171C9.2033 15.3694 9.13346 15.3349 9.0588 15.3158C8.98414 15.2967 8.90631 15.2935 8.83033 15.3063C8.7674 15.3167 8.70961 15.3471 8.66548 15.3929C8.65891 15.4042 8.65216 15.4156 8.64524 15.427ZM19.5943 13.002L17.6504 8.1794L16.1471 8.67219C16.0609 8.7003 15.9678 8.69807 15.8831 8.66589L15.8357 8.64758C15.4967 8.51672 13.5515 7.7659 13.0064 7.51994C12.6553 7.36231 12.2844 7.37846 11.4269 7.92937L11.2575 8.03774C10.5691 8.47476 10.2235 8.69465 9.96337 9.7346C9.83017 10.2674 9.89165 10.4833 9.94012 10.5621C10.0024 10.6662 10.1466 10.7083 10.3764 10.7659C10.4257 10.7742 10.4762 10.7714 10.5243 10.7578C10.5724 10.7442 10.6169 10.72 10.6546 10.6871C10.7657 10.6033 10.8585 10.4977 10.9273 10.3767C10.9961 10.2558 11.0394 10.122 11.0545 9.98365C11.0597 9.92424 11.0783 9.86677 11.1088 9.81558C11.1394 9.76438 11.1812 9.7208 11.2311 9.6881L11.9897 9.19197C12.0495 9.15308 12.1187 9.13115 12.19 9.12851C12.2612 9.12588 12.3319 9.14263 12.3944 9.17699L12.3961 9.17794C12.4775 9.22233 15.0904 10.6478 16.2417 10.9503C16.3064 10.9676 16.3657 11.0008 16.4143 11.0468L16.4193 11.0517C16.5454 11.1725 18.1098 12.6714 18.7752 13.3648L19.5943 13.002ZM20.7056 13.6528L18.0295 7.01397L20.4648 6.14308L23.0913 12.7386L20.7056 13.6528ZM9.31425 17.718C9.43799 17.9273 9.65906 18.2276 9.86595 18.1413C10.2094 17.9624 10.4739 17.6618 10.6076 17.2984C10.6339 17.2179 10.644 17.1331 10.6372 17.0487C10.6304 16.9643 10.607 16.8822 10.5682 16.807C10.5082 16.7482 10.4371 16.7022 10.3589 16.6716C10.2808 16.641 10.1973 16.6265 10.1134 16.6288L9.31425 17.718Z"
      fill="var(--primary-color, currentColor)" />
    <path fillRule="evenodd" clipRule="evenodd"
      d="M20.2657 14.4874C20.3308 14.5313 20.4076 14.5548 20.4861 14.5549C20.5344 14.5544 20.5822 14.5451 20.6272 14.5273L23.7474 13.3301C23.796 13.3114 23.8403 13.2833 23.8779 13.2474C23.9156 13.2115 23.9457 13.1684 23.9666 13.1208C23.9875 13.0732 23.9988 13.0219 23.9998 12.9699C24.0008 12.9179 23.9915 12.8662 23.9724 12.8178L21.0563 5.49838C21.0186 5.40349 20.9455 5.32696 20.8524 5.28491C20.7593 5.24286 20.6536 5.23858 20.5574 5.27298L17.3789 6.41026C17.3289 6.42816 17.2831 6.45596 17.2441 6.49201C17.2052 6.52806 17.1739 6.57161 17.1522 6.62004C17.1305 6.66847 17.1188 6.72079 17.1178 6.77385C17.1168 6.82692 17.1265 6.87964 17.1464 6.92885L17.3552 7.44698L16.0352 7.87972C15.5442 7.68978 13.8154 7.02026 13.3283 6.80076C12.5503 6.45047 11.841 6.72874 11.0168 7.25567C10.4352 6.81027 9.89078 6.80877 9.15404 7.22599C8.64254 7.51484 7.84337 7.99679 7.47412 8.22062L6.85001 7.8693L7.13589 7.27289C7.18044 7.1801 7.18691 7.07356 7.15391 6.97606C7.12092 6.87855 7.05109 6.79783 6.95935 6.75115L4.10196 5.29309C4.05577 5.26951 4.00537 5.25527 3.95366 5.2512C3.90195 5.24713 3.84995 5.25331 3.80064 5.26938C3.75132 5.28545 3.70566 5.3111 3.66628 5.34486C3.6269 5.37861 3.59457 5.41981 3.57115 5.46609L0.0426593 12.4356C-0.00450335 12.5284 -0.0129882 12.6362 0.0190591 12.7353C0.0511065 12.8344 0.12108 12.9168 0.213685 12.9644L3.21728 14.5115C3.27316 14.5401 3.33502 14.5549 3.39776 14.5549C3.44054 14.5543 3.48297 14.547 3.52347 14.5332C3.57335 14.5163 3.61936 14.4896 3.65881 14.4547C3.69825 14.4198 3.73035 14.3773 3.75321 14.3299L3.98246 13.8516L4.34332 14.0993C4.27493 14.2405 4.21374 14.3853 4.16003 14.5332C4.14745 14.5725 4.14107 14.6136 4.14111 14.6549C4.14111 15.6472 5.16294 16.1963 5.59321 16.3833C5.70973 16.6793 5.98532 17.2149 6.49489 17.3681C6.58446 17.3945 6.67737 17.4078 6.77074 17.4075C6.91541 17.4015 7.05688 17.3722 7.19011 17.3218C7.22227 17.3828 7.2578 17.4422 7.29656 17.4995C7.43768 17.7085 7.61894 17.8872 7.82979 18.0254C8.08116 18.1595 8.37098 18.203 8.65064 18.1488C8.82299 18.4625 9.08789 18.7154 9.40922 18.8731C9.52757 18.922 9.65432 18.9475 9.7824 18.9479C9.91602 18.9479 10.0483 18.9211 10.1713 18.8691C10.5041 18.7074 10.7906 18.4709 11.011 18.1819C11.2888 18.4003 11.5657 18.6199 11.8415 18.8408C12.0985 19.0352 12.4135 19.1373 12.7357 19.1304C13.0055 19.1301 13.2717 19.0677 13.5135 18.9479C13.7623 18.8315 13.9714 18.6446 14.1149 18.4104C14.179 18.3059 14.2287 18.1939 14.2633 18.0776C14.6517 18.0709 15.0285 17.9411 15.3388 17.7065C15.551 17.5461 15.7245 17.3424 15.8489 17.1106C15.9223 17.1208 15.9968 17.1249 16.0717 17.1226C16.2771 17.1214 16.4808 17.0857 16.6743 17.017C16.9912 16.9073 17.2725 16.7138 17.4882 16.4571C17.6215 16.2986 17.7267 16.1196 17.8003 15.9279C17.8159 15.9279 17.8315 15.9278 17.8471 15.9274C18.2563 15.9398 18.6544 15.793 18.9576 15.518C19.09 15.3939 19.1958 15.2442 19.2687 15.078C19.3415 14.9118 19.3798 14.7326 19.3813 14.5511C19.3827 14.3697 19.3474 14.1898 19.2772 14.0225L19.271 14.0079L19.8891 13.7334L20.1208 14.3082C20.1502 14.381 20.2006 14.4434 20.2657 14.4874ZM5.18395 14.1988C5.19484 14.183 5.20458 14.1664 5.21307 14.1491C5.26696 14.0587 5.32437 13.9703 5.38519 13.8841C5.45881 13.8265 5.54786 13.792 5.64107 13.785C5.73429 13.778 5.82749 13.7988 5.90891 13.8447C5.94115 13.8543 5.97097 13.8707 5.99636 13.8928C6.02176 13.9149 6.04216 13.9421 6.05618 13.9727C6.07021 14.0033 6.07754 14.0365 6.0777 14.0702C6.07785 14.1038 6.07082 14.1371 6.05708 14.1679C5.90733 14.6514 5.75482 15.1743 5.65197 15.5337C5.34933 15.3654 4.97181 15.0849 4.9324 14.716C5.00404 14.5378 5.08812 14.3649 5.18395 14.1988ZM4.74806 13.4208L4.32735 13.1321L6.50853 8.5817L7.28694 9.02018C7.34599 9.05349 7.41263 9.071 7.48043 9.07102C7.55297 9.07169 7.62429 9.05233 7.68653 9.01506C7.69874 9.006 8.88449 8.28328 9.5418 7.91167C9.8707 7.7261 10.0796 7.66338 10.2907 7.737C9.81131 8.0975 9.44696 8.54582 9.19769 9.54348C9.03002 10.0085 9.05355 10.5211 9.26311 10.9688C9.37304 11.1245 9.51425 11.2555 9.67771 11.3535C9.84118 11.4515 10.0233 11.5143 10.2124 11.5379C10.3683 11.5708 10.5295 11.5691 10.6846 11.5329C10.8397 11.4967 10.985 11.4268 11.1101 11.3282C11.4666 11.067 11.7149 10.6841 11.808 10.252L12.2226 9.98089C13.4151 10.6448 14.6579 11.2143 15.9394 11.6841C16.3067 12.0371 17.9799 13.6469 18.3826 14.1001L18.3887 14.105C18.4016 14.1191 18.4157 14.1323 18.4307 14.1445L18.4348 14.1478C18.4751 14.1896 18.5088 14.2376 18.5345 14.29C18.5706 14.3637 18.59 14.4443 18.5915 14.5263C18.593 14.6083 18.5765 14.6897 18.5432 14.7646C18.5098 14.8395 18.4604 14.9062 18.3984 14.96C18.2661 15.0582 18.1097 15.1189 17.9458 15.1359C17.7819 15.1528 17.6164 15.1252 17.4668 15.0561C17.2347 14.9012 16.0178 13.7328 15.3085 13.0326C15.2331 12.9643 15.1342 12.9278 15.0324 12.9308C14.9307 12.9338 14.8341 12.976 14.7628 13.0486C14.6915 13.1212 14.6511 13.2186 14.65 13.3203C14.6489 13.4221 14.6871 13.5203 14.7568 13.5945C15.0729 13.9054 16.6681 15.4699 17.0306 15.7118L17.0358 15.715C16.9968 15.7991 16.9468 15.8781 16.8868 15.9499C16.7614 16.0999 16.5973 16.2126 16.4122 16.2758C16.2989 16.3256 16.1753 16.3473 16.0518 16.339C15.9695 16.3335 15.8889 16.3149 15.813 16.284C15.7944 16.2736 15.775 16.2647 15.7549 16.2575C15.7372 16.2485 15.7199 16.2388 15.7029 16.2285C15.193 15.7733 13.809 14.3901 13.7952 14.3764C13.7209 14.3046 13.6213 14.2649 13.518 14.2658C13.4147 14.2666 13.3159 14.3081 13.2428 14.3812C13.1697 14.4542 13.1283 14.5531 13.1274 14.6564C13.1265 14.7597 13.1662 14.8592 13.238 14.9336C13.294 14.9895 14.5792 16.2741 15.1348 16.7755C15.0885 16.8544 15.0318 16.9272 14.9659 16.9918C14.8329 17.122 14.6674 17.2142 14.4866 17.2586C14.3925 17.2903 14.2928 17.302 14.1939 17.2927C14.095 17.2835 13.9991 17.2536 13.9125 17.205L12.5127 15.8052L11.9551 16.3628L13.3549 17.7626C13.401 17.8038 13.4499 17.8412 13.501 17.8747C13.4856 17.9206 13.4646 17.9646 13.4386 18.006C13.3723 18.111 13.2757 18.1935 13.1616 18.2426C13.034 18.3116 12.8907 18.3463 12.7456 18.3434C12.6006 18.3404 12.4588 18.2998 12.3341 18.2256C11.9241 17.8976 11.5597 17.6108 11.3783 17.4685C11.4248 17.2932 11.4374 17.1104 11.4148 16.93C11.3887 16.7209 11.3162 16.5202 11.2026 16.3427C11.0857 16.196 10.9386 16.0761 10.7714 15.9911C10.6042 15.906 10.4207 15.8578 10.2332 15.8498C10.2514 15.6394 10.2126 15.428 10.1208 15.2378C10.029 15.0477 9.88755 14.8858 9.71147 14.7692C9.55258 14.6523 9.36955 14.5723 9.17578 14.5352C9.06932 14.5148 8.96111 14.5077 8.85356 14.5137C8.80013 14.239 8.63533 14.0265 8.44435 13.894C8.16249 13.7172 7.82487 13.6519 7.49741 13.7107C7.2609 13.7532 7.04195 13.8582 6.86218 14.0126C6.85549 13.8925 6.82754 13.7734 6.77855 13.6611C6.67641 13.4272 6.49027 13.24 6.25687 13.1366C6.00893 13.0037 5.72277 12.9603 5.44658 13.0137C5.17422 13.0663 4.92796 13.21 4.74806 13.4208ZM3.48639 13.0643L5.96948 7.88453C5.97578 7.86886 5.9831 7.85358 5.9914 7.83879L6.25909 7.28038L4.09565 6.17699L0.922614 12.4427L3.21767 13.6249L3.45608 13.1276C3.46424 13.1057 3.47436 13.0846 3.48639 13.0643ZM7.09354 16.4669C7.41315 15.9669 7.86761 15.2349 7.93737 15.0782C7.9412 15.0706 7.94511 15.063 7.94912 15.0555L7.95174 15.0506C7.9634 15.0291 7.97583 15.008 7.989 14.9875C8.07761 14.8308 8.13815 14.6414 7.99472 14.5418C7.87981 14.4791 7.74614 14.4597 7.61815 14.4874C7.49016 14.515 7.37639 14.5878 7.29761 14.6924C6.95144 15.1524 6.63109 15.6312 6.33806 16.1268C6.42436 16.3329 6.57134 16.5689 6.72149 16.6134C6.83717 16.6478 6.99054 16.5487 7.09354 16.4669ZM8.64524 15.427C8.51983 15.6851 8.0447 16.4392 7.82034 16.792C7.88304 17.0109 8.01893 17.2018 8.20534 17.3326C8.26354 17.3625 8.32724 17.3801 8.39251 17.3844C8.45778 17.3887 8.52324 17.3795 8.58483 17.3575L9.42617 15.9152C9.45961 15.826 9.46176 15.7282 9.43225 15.6377C9.40275 15.5472 9.34335 15.4694 9.26381 15.4171C9.2033 15.3694 9.13346 15.3349 9.0588 15.3158C8.98414 15.2967 8.90631 15.2935 8.83033 15.3063C8.7674 15.3167 8.70961 15.3471 8.66548 15.3929C8.65891 15.4042 8.65216 15.4156 8.64524 15.427ZM19.5943 13.002L17.6504 8.1794L16.1471 8.67219C16.0609 8.7003 15.9678 8.69807 15.8831 8.66589L15.8357 8.64758C15.4967 8.51672 13.5515 7.7659 13.0064 7.51994C12.6553 7.36231 12.2844 7.37846 11.4269 7.92937L11.2575 8.03774C10.5691 8.47476 10.2235 8.69465 9.96337 9.7346C9.83017 10.2674 9.89165 10.4833 9.94012 10.5621C10.0024 10.6662 10.1466 10.7083 10.3764 10.7659C10.4257 10.7742 10.4762 10.7714 10.5243 10.7578C10.5724 10.7442 10.6169 10.72 10.6546 10.6871C10.7657 10.6033 10.8585 10.4977 10.9273 10.3767C10.9961 10.2558 11.0394 10.122 11.0545 9.98365C11.0597 9.92424 11.0783 9.86677 11.1088 9.81558C11.1394 9.76438 11.1812 9.7208 11.2311 9.6881L11.9897 9.19197C12.0495 9.15308 12.1187 9.13115 12.19 9.12851C12.2612 9.12588 12.3319 9.14263 12.3944 9.17699L12.3961 9.17794C12.4775 9.22233 15.0904 10.6478 16.2417 10.9503C16.3064 10.9676 16.3657 11.0008 16.4143 11.0468L16.4193 11.0517C16.5454 11.1725 18.1098 12.6714 18.7752 13.3648L19.5943 13.002ZM20.7056 13.6528L18.0295 7.01397L20.4648 6.14308L23.0913 12.7386L20.7056 13.6528ZM9.31425 17.718C9.43799 17.9273 9.65906 18.2276 9.86595 18.1413C10.2094 17.9624 10.4739 17.6618 10.6076 17.2984C10.6339 17.2179 10.644 17.1331 10.6372 17.0487C10.6304 16.9643 10.607 16.8822 10.5682 16.807C10.5082 16.7482 10.4371 16.7022 10.3589 16.6716C10.2808 16.641 10.1973 16.6265 10.1134 16.6288L9.31425 17.718Z"
      stroke="var(--primary-color, currentColor)" stroke-width="0.3"
      mask="url(#path-1-outside-1_47_4724)" />
  </g>
  <defs>
    <clipPath id="clip0_47_4724">
      <rect width="24" height="24" fill="var(--secondary-color, white)" />
    </clipPath>
  </defs>
</svg>