<svg width="1em" height="1em" viewBox="0 0 24 24" fill="none" xmlns="http://www.w3.org/2000/svg">
  <path
    d="M11.9924 19.4933C16.2639 19.4933 19.7896 15.9676 19.7896 11.7037C19.7896 7.43973 16.2564 3.91406 11.9849 3.91406C7.72096 3.91406 4.20282 7.43973 4.20282 11.7037C4.20282 15.9676 7.72849 19.4933 11.9924 19.4933ZM11.9924 17.9414C8.53457 17.9414 5.76978 15.1616 5.76978 11.7037C5.76978 8.24581 8.53457 5.47349 11.9849 5.47349C15.4428 5.47349 18.2226 8.24581 18.2302 11.7037C18.2377 15.1616 15.4503 17.9414 11.9924 17.9414ZM11.8267 13.2028C12.241 13.2028 12.5047 12.9618 12.5273 12.6529C12.5273 12.6303 12.5273 12.5926 12.5349 12.5625C12.5575 12.1783 12.8211 11.9222 13.3108 11.5982C14.0566 11.1161 14.5312 10.6791 14.5312 9.81278C14.5312 8.56222 13.4012 7.83901 12.0602 7.83901C10.772 7.83901 9.8906 8.42662 9.65706 9.13477C9.61186 9.26284 9.58173 9.3909 9.58173 9.52651C9.58173 9.89565 9.868 10.1217 10.2145 10.1217C10.659 10.1217 10.7569 9.89565 10.9905 9.63951C11.2316 9.26284 11.548 9.04436 11.9924 9.04436C12.5876 9.04436 12.9793 9.38337 12.9793 9.88811C12.9793 10.3477 12.6629 10.5963 12.0226 11.0332C11.4877 11.4099 11.096 11.7941 11.096 12.4721V12.555C11.096 12.9844 11.3596 13.2028 11.8267 13.2028ZM11.8116 15.5156C12.2938 15.5156 12.6931 15.1691 12.6931 14.6869C12.6931 14.2123 12.3013 13.8583 11.8116 13.8583C11.322 13.8583 10.9227 14.2123 10.9227 14.6869C10.9227 15.1616 11.322 15.5156 11.8116 15.5156Z"
    fill="currentColor" />
</svg>
  