<svg width="1em" height="1em" viewBox="0 0 24 24" fill="none" xmlns="http://www.w3.org/2000/svg">
  <path
    d="M11.9925 3.91406C16.264 3.91406 19.7897 7.43973 19.7897 11.7037C19.7897 15.9676 16.2565 19.4933 11.985 19.4933C7.72102 19.4933 4.20288 15.9676 4.20288 11.7037C4.20288 7.43973 7.72855 3.91406 11.9925 3.91406ZM11.9925 10.4155C11.548 10.4155 11.2919 10.6641 11.2768 11.1161L11.1714 14.8753C11.1563 15.3424 11.4878 15.6663 11.985 15.6663C12.4671 15.6663 12.8212 15.3348 12.8061 14.8677L12.6856 11.1161C12.6705 10.6565 12.4219 10.4155 11.9925 10.4155ZM11.9925 7.80887C11.4802 7.80887 11.0583 8.17801 11.0583 8.67522C11.0583 9.17243 11.4727 9.54157 11.9925 9.54157C12.5048 9.54157 12.9191 9.17243 12.9191 8.67522C12.9191 8.17048 12.4972 7.80887 11.9925 7.80887Z"
    fill="currentColor" />
</svg>