<svg width="1em" height="1em" viewBox="0 0 24 24" fill="none" xmlns="http://www.w3.org/2000/svg">
  <path
    d="M11.9925 3.91406C16.264 3.91406 19.7897 7.43973 19.7897 11.7037C19.7897 15.9676 16.2565 19.4933 11.985 19.4933C7.72102 19.4933 4.20288 15.9676 4.20288 11.7037C4.20288 7.43973 7.72855 3.91406 11.9925 3.91406ZM11.9925 5.46596C8.53463 5.46596 5.76985 8.24581 5.76985 11.7037C5.76985 15.1615 8.53463 17.9339 11.985 17.9339C15.4428 17.9339 18.2227 15.1615 18.2302 11.7037C18.2378 8.24581 15.4504 5.46596 11.9925 5.46596ZM11.985 10.4531C12.3993 10.4531 12.6404 10.6867 12.6479 11.1236L12.7609 14.7472C12.776 15.1917 12.4445 15.5156 11.9774 15.5156C11.5104 15.5156 11.1864 15.1992 11.2015 14.7547L11.307 11.1236C11.322 10.6942 11.5631 10.4531 11.985 10.4531ZM11.985 7.95201C12.4746 7.95201 12.8739 8.30608 12.8739 8.78822C12.8739 9.26283 12.4822 9.61691 11.985 9.61691C11.4953 9.61691 11.096 9.26283 11.096 8.78822C11.096 8.31361 11.5028 7.95201 11.985 7.95201Z"
    fill="currentColor" />
</svg>
  