<svg width="1em" height="1em" viewBox="0 0 32 32" fill="none" xmlns="http://www.w3.org/2000/svg">
  <path
    d="M24.9449 18.8403C24.4988 18.0452 22.9572 17.7954 22.25 17.683C21.6926 17.5943 21.1235 17.5678 20.5597 17.5683C20.117 17.5654 19.6808 17.5872 19.2502 17.6117C19.0915 17.6223 18.9344 17.6361 18.7774 17.6496C18.6165 17.4831 18.461 17.311 18.3105 17.1351C17.3529 16.0015 16.5796 14.7159 15.9496 13.38C16.1169 12.7345 16.2507 12.0608 16.3315 11.3612C16.4791 10.0843 16.5298 8.62914 16.0514 7.41177C15.8862 6.99161 15.4457 6.4801 14.9375 6.73481C14.3532 7.02774 14.1889 7.85765 14.1412 8.44594C14.1029 8.92145 14.1297 9.39819 14.2096 9.86574C14.2909 10.3365 14.4218 10.7835 14.5643 11.2298C14.6973 11.6391 14.8439 12.0452 15.0037 12.4474C14.9023 12.7641 14.7947 13.0753 14.6816 13.3785C14.4181 14.0695 14.1331 14.726 13.8591 15.3576C13.7146 15.6707 13.5731 15.9772 13.4348 16.2769C12.9968 17.2388 12.5215 18.1831 11.9879 19.0959C10.7433 19.5349 9.6265 20.0439 8.69899 20.642C8.20144 20.9634 7.76193 21.3125 7.3959 21.6955C7.05032 22.057 6.6991 22.5261 6.66837 23.0455C6.6511 23.3386 6.76719 23.6231 7.00734 23.797C7.33761 24.0438 7.77528 24.0274 8.15846 23.947C9.41367 23.6837 10.3776 22.6047 11.1984 21.6953C11.7638 21.069 12.4073 20.2736 13.0805 19.3117C13.082 19.3095 13.0834 19.3073 13.085 19.3051C14.2396 18.9471 15.4961 18.6449 16.8297 18.4227C17.4389 18.3217 18.0643 18.239 18.7022 18.181C19.1508 18.6012 19.6355 18.9837 20.1643 19.3032C20.5761 19.5566 21.0142 19.7705 21.4726 19.9301C21.9363 20.0816 22.4027 20.2053 22.8844 20.2835C23.1276 20.3183 23.3763 20.3341 23.6304 20.3245C24.1975 20.3031 25.0115 20.0856 25.0649 19.3975C25.0813 19.1869 25.0359 19.0022 24.9449 18.8403ZM11.3679 20.1029C11.1023 20.5143 10.8461 20.8844 10.6047 21.21C10.0136 22.0144 9.33848 22.9697 8.361 23.3269C8.17536 23.3947 7.93093 23.4648 7.67327 23.4496C7.44378 23.4361 7.21748 23.3348 7.22788 23.0742C7.23303 22.9378 7.29977 22.7638 7.40215 22.5929C7.5142 22.4054 7.65294 22.2334 7.8032 22.0753C8.12515 21.7371 8.5322 21.4093 9.00049 21.1057C9.71872 20.6397 10.5762 20.2203 11.532 19.8461C11.477 19.933 11.4221 20.0195 11.3679 20.1029ZM14.7015 9.78443C14.6278 9.3541 14.6166 8.91778 14.6619 8.49823C14.6845 8.28846 14.7272 8.08371 14.789 7.89181C14.8415 7.72894 14.9546 7.33144 15.1351 7.28037C15.4327 7.19612 15.5242 7.83499 15.5578 8.01574C15.7496 9.04391 15.5806 10.1873 15.3505 11.1959C15.3139 11.3563 15.2731 11.5142 15.2314 11.6714C15.1601 11.4754 15.0921 11.2787 15.0296 11.081C14.8948 10.6494 14.7717 10.2127 14.7015 9.78443ZM16.7445 17.9011C15.6264 18.0823 14.5629 18.3197 13.5631 18.6001C13.6835 18.5664 14.2336 17.5239 14.3563 17.3075C14.9344 16.2892 15.4073 15.2205 15.7472 14.0994C16.3472 15.2862 17.0755 16.4215 17.9702 17.432C18.0526 17.5238 18.1364 17.6144 18.2216 17.7039C17.7202 17.7579 17.2268 17.8237 16.7445 17.9011ZM24.3056 19.3331C24.2647 19.5541 23.7926 19.6805 23.5723 19.7153C22.9213 19.8177 22.2326 19.7357 21.6096 19.5265C21.1821 19.3829 20.7697 19.1875 20.378 18.9524C19.9886 18.7171 19.6242 18.4404 19.2837 18.1352C19.7036 18.11 20.1287 18.0934 20.5558 18.1015C20.9829 18.1058 21.4134 18.1274 21.8386 18.1828C22.6359 18.2717 23.5294 18.5454 24.157 19.0628C24.2805 19.1648 24.32 19.255 24.3056 19.3331Z"
    fill="currentColor" />
</svg>