<svg width="1em" height="1em" viewBox="0 0 24 24" fill="none" xmlns="http://www.w3.org/2000/svg">
  <path
    d="M5.75476 17.7229H6.53071V18.4236C6.53071 19.546 7.06559 20.0432 8.15041 20.0432H15.8496C16.9269 20.0432 17.4693 19.546 17.4693 18.4236V17.7229H18.2453C19.7821 17.7229 20.6183 16.9169 20.6183 15.3725V8.45675C20.6183 6.91992 19.7821 6.10631 18.2453 6.10631H17.5597V5.6995C17.5597 4.1702 16.7913 3.46959 15.3147 3.46959H8.68529C7.26899 3.46959 6.44031 4.1702 6.44031 5.6995V6.10631H5.75476C4.2782 6.10631 3.38171 6.91992 3.38171 8.45675V15.3725C3.38171 16.9169 4.21793 17.7229 5.75476 17.7229ZM7.84154 5.59403C7.84154 5.03655 8.12781 4.75028 8.68529 4.75028H15.3147C15.8722 4.75028 16.1585 5.03655 16.1585 5.59403V6.10631H7.84154V5.59403ZM15.8496 10.8976H8.15041C7.10325 10.8976 6.53071 11.3948 6.53071 12.5173V16.3669H5.75476C5.13702 16.3669 4.81308 16.043 4.81308 15.4328V8.40402C4.81308 7.78627 5.13702 7.46233 5.75476 7.46233H18.2453C18.863 7.46233 19.1794 7.78627 19.1794 8.40402V15.4328C19.1794 16.043 18.863 16.3669 18.2453 16.3669H17.4693V12.5173C17.4693 11.3948 16.9269 10.8976 15.8496 10.8976ZM15.5408 9.19504C15.5408 9.74498 15.9852 10.1744 16.5276 10.1669C17.055 10.1669 17.4995 9.73745 17.4995 9.19504C17.4995 8.66769 17.055 8.21568 16.5276 8.21568C15.9928 8.21568 15.5408 8.66769 15.5408 9.19504ZM8.45928 18.7249C8.09767 18.7249 7.91687 18.5516 7.91687 18.1825V12.7584C7.91687 12.3892 8.09767 12.216 8.45928 12.216H15.5483C15.9099 12.216 16.0832 12.3892 16.0832 12.7584V18.1825C16.0832 18.5516 15.9099 18.7249 15.5483 18.7249H8.45928ZM9.5215 14.7095H14.4936C14.7874 14.7095 15.0059 14.4835 15.0059 14.1897C15.0059 13.911 14.7874 13.685 14.4936 13.685H9.5215C9.22016 13.685 9.00169 13.911 9.00169 14.1897C9.00169 14.4835 9.22016 14.7095 9.5215 14.7095ZM9.5215 17.2634H14.4936C14.7874 17.2634 15.0059 17.0449 15.0059 16.7587C15.0059 16.4724 14.7874 16.2388 14.4936 16.2388H9.5215C9.22016 16.2388 9.00169 16.4724 9.00169 16.7587C9.00169 17.0449 9.22016 17.2634 9.5215 17.2634Z"
    fill="currentColor" />
</svg>