<svg width="1em" height="1em" viewBox="0 0 24 24" fill="none" xmlns="http://www.w3.org/2000/svg">
  <path
    d="M7.52513 19.5837H11.8041C11.3521 19.1694 10.9981 18.6571 10.7871 18.0845H7.66073C6.93752 18.0845 6.57591 17.7154 6.57591 17.0223V5.84263C6.57591 5.15709 6.93752 4.76534 7.66073 4.76534H15.4278C16.1284 4.76534 16.5126 5.14955 16.5126 5.84263V12.3516C17.0851 12.5625 17.5974 12.9166 18.0117 13.3686V5.7447C18.0117 4.10993 17.1755 3.26618 15.5558 3.26618H7.52513C5.91296 3.26618 5.06921 4.11747 5.06921 5.7447V17.1052C5.06921 18.74 5.91296 19.5837 7.52513 19.5837ZM8.79829 7.83147H14.2977C14.5689 7.83147 14.7723 7.62053 14.7723 7.34933C14.7723 7.08566 14.5689 6.87472 14.2977 6.87472H8.79829C8.51955 6.87472 8.31614 7.08566 8.31614 7.34933C8.31614 7.62053 8.51955 7.83147 8.79829 7.83147ZM8.79829 10.4004H14.2977C14.5689 10.4004 14.7723 10.1895 14.7723 9.91825C14.7723 9.65457 14.5689 9.44364 14.2977 9.44364H8.79829C8.51955 9.44364 8.31614 9.65457 8.31614 9.91825C8.31614 10.1895 8.51955 10.4004 8.79829 10.4004ZM14.7045 19.5837C15.3449 19.5837 15.94 19.4029 16.4448 19.094L18.0494 20.6987C18.2302 20.8795 18.411 20.9473 18.6295 20.9473C19.0137 20.9473 19.3075 20.6459 19.3075 20.2316C19.3075 20.0508 19.2246 19.8624 19.0815 19.7193L17.4693 18.0996C17.8159 17.5798 18.0193 16.947 18.0193 16.2765C18.0193 14.4459 16.5352 12.9618 14.7045 12.9618C12.8814 12.9618 11.3898 14.4534 11.3898 16.2765C11.3898 18.0996 12.8814 19.5837 14.7045 19.5837ZM14.7045 18.4386C13.5067 18.4386 12.5349 17.4668 12.5349 16.2765C12.5349 15.0937 13.5067 14.1144 14.7045 14.1144C15.8873 14.1144 16.8591 15.0937 16.8591 16.2765C16.8591 17.4668 15.8948 18.4386 14.7045 18.4386Z"
    fill="currentColor" />
</svg>
  