<svg width="1em" height="1em" viewBox="0 0 24 24" fill="none" xmlns="http://www.w3.org/2000/svg">
  <path
    d="M10.7419 16.3142C11.9397 16.3142 13.0622 15.9526 13.9964 15.3348L17.296 18.642C17.5145 18.853 17.7932 18.9584 18.0946 18.9584C18.7199 18.9584 19.1794 18.4687 19.1794 17.851C19.1794 17.5647 19.0815 17.286 18.8705 17.075L15.5935 13.7829C16.2715 12.8186 16.6708 11.6509 16.6708 10.3853C16.6708 7.12332 14.0039 4.45647 10.7419 4.45647C7.48744 4.45647 4.81305 7.12332 4.81305 10.3853C4.81305 13.6473 7.4799 16.3142 10.7419 16.3142ZM10.7419 14.7321C8.35379 14.7321 6.39508 12.7734 6.39508 10.3853C6.39508 7.9972 8.35379 6.0385 10.7419 6.0385C13.13 6.0385 15.0887 7.9972 15.0887 10.3853C15.0887 12.7734 13.13 14.7321 10.7419 14.7321Z"
    fill="currentColor" />
</svg>