<svg width="1em" height="1em" viewBox="0 0 24 24" fill="none" xmlns="http://www.w3.org/2000/svg">
  <path fillRule="evenodd" clipRule="evenodd"
    d="M19 6.5C19 8.433 17.433 10 15.5 10C15.3953 10 15.2917 9.99541 15.1894 9.98641C15.7048 10.872 16 11.9015 16 13C16 16.3137 13.3137 19 10 19C6.68629 19 4 16.3137 4 13C4 9.68629 6.68629 7 10 7C10.7434 7 11.4552 7.13519 12.1122 7.38232C12.039 7.10045 12 6.80478 12 6.5C12 4.567 13.567 3 15.5 3C17.433 3 19 4.567 19 6.5ZM17.2 6.5C17.2 7.43888 16.4389 8.2 15.5 8.2C14.5611 8.2 13.8 7.43888 13.8 6.5C13.8 5.56112 14.5611 4.8 15.5 4.8C16.4389 4.8 17.2 5.56112 17.2 6.5ZM14.2 13C14.2 15.3196 12.3196 17.2 10 17.2C7.6804 17.2 5.8 15.3196 5.8 13C5.8 10.6804 7.6804 8.8 10 8.8C12.3196 8.8 14.2 10.6804 14.2 13Z"
    fill="currentColor" />
</svg>
  