<svg width="1em" height="1em" viewBox="0 0 24 24" fill="none" xmlns="http://www.w3.org/2000/svg">
  <path
    d="M11.2316 19.8926H12.7609C13.3862 19.8926 13.8759 19.5008 14.0265 18.8982L14.3279 17.5798L14.5237 17.5045L15.6764 18.2201C16.2037 18.5516 16.829 18.4612 17.2735 18.0167L18.3281 16.9621C18.7802 16.51 18.8555 15.8923 18.524 15.3725L17.8083 14.2199L17.8837 14.0391L19.202 13.7302C19.7972 13.5795 20.1889 13.0898 20.1889 12.4646V10.9805C20.1889 10.3552 19.8047 9.86551 19.202 9.71484L17.8912 9.39844L17.8159 9.20257L18.5315 8.05748C18.863 7.53767 18.7877 6.91992 18.3357 6.46038L17.281 5.40569C16.844 4.96121 16.2188 4.87835 15.6914 5.20229L14.5388 5.91043L14.3279 5.8351L14.0265 4.50921C13.8759 3.90653 13.3862 3.52232 12.7609 3.52232H11.2316C10.5988 3.52232 10.1091 3.90653 9.96598 4.50921L9.66464 5.8351L9.4537 5.91043L8.30108 5.20229C7.7662 4.87835 7.14846 4.96121 6.71151 5.40569L5.64929 6.46038C5.20482 6.91992 5.12195 7.53767 5.45342 8.05748L6.1691 9.20257L6.09377 9.39844L4.79048 9.71484C4.1878 9.86551 3.80359 10.3552 3.80359 10.9805V12.4646C3.80359 13.0898 4.19533 13.5795 4.79048 13.7302L6.10883 14.0391L6.17664 14.2199L5.46096 15.3725C5.12948 15.8923 5.21235 16.51 5.65683 16.9621L6.71905 18.0167C7.15599 18.4612 7.78127 18.5516 8.30861 18.2201L9.46123 17.5045L9.66464 17.5798L9.96598 18.8982C10.1091 19.5008 10.5988 19.8926 11.2316 19.8926ZM11.4275 18.5064C11.2994 18.5064 11.2316 18.4537 11.2165 18.3407L10.7645 16.4874C10.2899 16.3744 9.83038 16.1786 9.46123 15.945L7.834 16.947C7.73607 17.0073 7.64567 16.9997 7.55526 16.9093L6.76425 16.1183C6.67385 16.0354 6.67385 15.945 6.73411 15.8471L7.73607 14.2199C7.52513 13.8583 7.32926 13.4062 7.21626 12.9316L5.35549 12.4872C5.24248 12.4721 5.18222 12.4043 5.18222 12.2762V11.1613C5.18222 11.0257 5.23495 10.9729 5.35549 10.9428L7.20872 10.5059C7.32173 10.0011 7.5402 9.53404 7.72853 9.19503L6.72658 7.58287C6.66631 7.4774 6.66631 7.387 6.74918 7.29659L7.54773 6.51311C7.63813 6.43024 7.721 6.41518 7.834 6.48298L9.44617 7.46986C9.78517 7.25893 10.2899 7.04799 10.7721 6.92745L11.2165 5.07422C11.2316 4.96121 11.2994 4.90095 11.4275 4.90095H12.565C12.6931 4.90095 12.7534 4.95368 12.776 5.07422L13.228 6.93499C13.7177 7.05552 14.1621 7.25893 14.5388 7.46986L16.151 6.48298C16.264 6.42271 16.3468 6.43024 16.4372 6.52065L17.2358 7.30413C17.3262 7.387 17.3262 7.4774 17.2584 7.58287L16.264 9.19503C16.4448 9.53404 16.6708 10.0011 16.7838 10.5059L18.637 10.9428C18.7576 10.9729 18.8028 11.0257 18.8028 11.1613V12.2762C18.8028 12.4043 18.75 12.4721 18.637 12.4872L16.7762 12.9316C16.6632 13.4062 16.4598 13.8658 16.2489 14.2199L17.2509 15.8396C17.3111 15.945 17.3111 16.0279 17.2207 16.1108L16.4297 16.9093C16.3393 16.9997 16.2489 17.0073 16.151 16.947L14.5313 15.945C14.1546 16.1786 13.7252 16.3669 13.228 16.4874L12.776 18.3407C12.7534 18.4537 12.6931 18.5064 12.565 18.5064H11.4275ZM12 14.5664C13.567 14.5664 14.8552 13.2782 14.8552 11.7037C14.8552 10.1443 13.567 8.85603 12 8.85603C10.4255 8.85603 9.12976 10.1443 9.12976 11.7037C9.12976 13.2782 10.4255 14.5664 12 14.5664ZM12 13.2631C11.1412 13.2631 10.4406 12.5625 10.4406 11.7037C10.4406 10.8599 11.1487 10.1593 12 10.1593C12.8362 10.1593 13.5368 10.8599 13.5368 11.7037C13.5368 12.555 12.8362 13.2631 12 13.2631Z"
    fill="currentColor" />
</svg>