<svg width="1em" height="1em" viewBox="0 0 24 24" fill="none" xmlns="http://www.w3.org/2000/svg">
  <path
    d="M13.002 18.7174C13.4163 18.7174 13.7403 18.5592 14.1395 18.1825L20.1061 12.5851C20.3999 12.3064 20.5129 11.9824 20.5129 11.7037C20.5129 11.4174 20.3999 11.101 20.1061 10.8223L14.1395 5.26256C13.7026 4.85575 13.4163 4.69002 13.017 4.69002C12.4144 4.69002 11.985 5.15709 11.985 5.74471V8.42662H11.7966C6.59852 8.42662 4.18781 11.764 4.18781 17.2333C4.18781 18.19 4.59461 18.6872 5.12196 18.6872C5.52123 18.6872 5.89037 18.5592 6.18418 18.0092C7.36693 15.8094 9.0469 15.0034 11.7966 15.0034H11.985V17.7003C11.985 18.288 12.4144 18.7174 13.002 18.7174ZM13.4841 16.7737C13.4163 16.7737 13.3711 16.7285 13.3711 16.6532V13.8733C13.3711 13.7001 13.2958 13.6247 13.1225 13.6247H12.1582C8.70789 13.6247 6.50812 14.7171 5.6041 16.6005C5.5815 16.6457 5.5589 16.6683 5.52876 16.6683C5.49863 16.6683 5.47603 16.6457 5.47603 16.5929C5.59657 12.9994 7.30667 9.79772 12.1582 9.79772H13.1225C13.2958 9.79772 13.3711 9.72238 13.3711 9.54911V6.70146C13.3711 6.63366 13.4163 6.58846 13.4841 6.58846C13.5293 6.58846 13.5745 6.61106 13.6122 6.64872L18.7576 11.5606C18.8103 11.6208 18.8329 11.6585 18.8329 11.7037C18.8329 11.7489 18.8178 11.7866 18.7576 11.8468L13.6047 16.7135C13.567 16.7511 13.5218 16.7737 13.4841 16.7737Z"
    fill="currentColor" />
</svg>