<svg width="1em" height="1em" viewBox="0 0 24 24" fill="none" xmlns="http://www.w3.org/2000/svg">
  <path
    d="M6.54574 16.4573H11.2768V12.2687L11.3295 11.1914L10.8926 11.7188L9.84541 12.8412C9.72487 12.9768 9.53653 13.0522 9.35573 13.0522C9.00166 13.0522 8.71538 12.7885 8.71538 12.4269C8.71538 12.2386 8.79072 12.0954 8.91879 11.9674L11.45 9.52651C11.6384 9.34571 11.8041 9.28544 12 9.28544C12.1883 9.28544 12.3616 9.34571 12.5424 9.52651L15.0736 11.9674C15.2092 12.0954 15.277 12.2386 15.277 12.4269C15.277 12.7885 14.9908 13.0522 14.6292 13.0522C14.4559 13.0522 14.2751 12.9768 14.147 12.8412L13.0999 11.7188L12.6629 11.1914L12.7232 12.2687V16.4573H17.8836C20.1135 16.4573 21.6278 15.0862 21.6278 13.2028C21.6278 11.6434 20.7162 10.2723 19.2171 9.66211C19.2246 6.25698 16.7687 3.80106 13.6121 3.80106C11.6082 3.80106 10.1015 4.83315 9.15986 6.19671C7.35936 5.75224 5.23492 7.1158 5.15958 9.24024C3.43441 9.54158 2.37219 11.0633 2.37219 12.8488C2.37219 14.8451 4.03709 16.4573 6.54574 16.4573ZM12 20.3371C12.3842 20.3371 12.7006 20.0131 12.7006 19.644V16.1409C12.6855 16.495 12.3842 16.8114 12 16.8114C11.6082 16.8114 11.3069 16.495 11.2918 16.1409V19.644C11.2918 20.0131 11.6082 20.3371 12 20.3371Z"
    fill="currentColor" />
</svg>