<svg width="1em" height="1em" viewBox="0 0 24 24" fill="none" xmlns="http://www.w3.org/2000/svg">
  <path
    d="M12.8682 5.51943L19.1451 16.5039C19.526 17.1705 19.0446 18 18.2768 18H5.72318C4.95536 18 4.47399 17.1705 4.85494 16.5039L11.1318 5.51943C11.5157 4.84761 12.4843 4.84761 12.8682 5.51943Z"
    fill="currentColor" />
  <path
    d="M11.9847 13.9541C12.399 13.9541 12.6401 13.7206 12.6476 13.2836L12.7606 9.66002C12.7757 9.21554 12.4442 8.8916 11.9771 8.8916C11.51 8.8916 11.1861 9.20801 11.2012 9.65248L11.3066 13.2836C11.3217 13.713 11.5628 13.9541 11.9847 13.9541ZM11.9847 16.4552C12.4743 16.4552 12.8736 16.1011 12.8736 15.619C12.8736 15.1444 12.4819 14.7903 11.9847 14.7903C11.495 14.7903 11.0957 15.1444 11.0957 15.619C11.0957 16.0936 11.5025 16.4552 11.9847 16.4552Z"
    fill="var(--secondary-color, white)" />
</svg>