<svg width="1em" height="1em" viewBox="0 0 24 24" fill="none" xmlns="http://www.w3.org/2000/svg">
  <path
    d="M12.3086 15.4742L12.0126 15.2567L11.7166 15.4742L8.15288 18.0921C8.1526 18.0923 8.15232 18.0925 8.15204 18.0927C7.91177 18.2671 7.7422 18.2183 7.68731 18.1813C7.65782 18.1614 7.62979 18.1289 7.61468 18.0701C7.59888 18.0087 7.59315 17.8985 7.65136 17.7326L7.6514 17.7326L7.65351 17.7263L9.05612 13.5523L9.17378 13.2022L8.87367 12.9868L5.22351 10.3675L5.22352 10.3675L5.22177 10.3662C4.98291 10.1964 4.99098 10.0396 5.00826 9.9838C5.02574 9.92737 5.10465 9.8035 5.37138 9.8035H9.88337H10.2465L10.3589 9.45813L11.7108 5.30101L11.7108 5.30102L11.7124 5.29605C11.7914 5.04401 11.9353 5 12.0063 5C12.0794 5 12.229 5.04708 12.3149 5.30216L13.6489 9.45638L13.7604 9.8035H14.125H18.6201C18.8983 9.8035 18.975 9.92989 18.9917 9.9838C19.0096 10.0418 19.015 10.1997 18.783 10.3688C18.7828 10.369 18.7825 10.3692 18.7823 10.3693L15.1507 12.9874L14.8529 13.2021L14.9686 13.5506L16.3543 17.7246L16.3542 17.7246L16.3561 17.73C16.4154 17.902 16.4096 18.0156 16.3936 18.0785C16.3784 18.1382 16.3507 18.1691 16.3239 18.1871C16.2741 18.2206 16.1103 18.2691 15.8768 18.0954L15.8743 18.0935L12.3086 15.4742Z"
    stroke="currentColor" />
</svg>
  